<?xml version='1.0' encoding='UTF-8'?>
<svg xmlns="http://www.w3.org/2000/svg" xmlns:xlink="http://www.w3.org/1999/xlink" width="696" height="876" viewBox="0 0 696 876" style="fill:none;stroke:none;fill-rule:evenodd;clip-rule:evenodd;stroke-linecap:round;stroke-linejoin:round;stroke-miterlimit:1.5;" version="1.1">
  <style class="text-font-style fontImports" data-font-family="Roboto">@import url('https://fonts.googleapis.com/css2?family=Roboto:wght@400;700&amp;display=block');</style>
  <rect x="0" y="0" width="696" height="876" fill="#2c2c2c" stroke="none" id="programmatic_background"/>
  <g id="g-root-tf_4hbl7alf8m4m-stroke-fill" data-item-order="-565620" transform="translate(8, 2)"/>
  <g id="g-root--1.Vector_sy_1qapzbqlf76ku-stroke-fill" data-item-order="-18031" transform="translate(200, 149)">
    <g id="-1.Vector_sy_1qapzbqlf76ku-stroke" fill="none" stroke-linecap="round" stroke-linejoin="round" stroke-miterlimit="4" stroke="#f4f4f4" stroke-width="2">
      <g>
        <path d="M 10 580L 10 490M 10 484L 10 394M 10 388L 10 298M 10 292L 10 202M 10 196L 10 106M 10 100L 10 10"/>
      </g>
    </g>
  </g>
  <g id="g-root--1.line_sy_1luwh7alf77d3-stroke-fill" data-item-order="-18027" transform="translate(200, 725)">
    <g id="-1.line_sy_1luwh7alf77d3-stroke" fill="none" stroke-linecap="round" stroke-linejoin="round" stroke-miterlimit="4" stroke="#f4f4f4" stroke-width="2">
      <g>
        <path d="M 10 94L 10 10"/>
        <path d="M 3.5 88L 10 94.5L 16.5 88" stroke-dasharray="none"/>
      </g>
    </g>
  </g>
  <g id="g-root-7.cu_sy_18jfytylf78y0-stroke-fill" data-item-order="-18024" transform="translate(197, 719)">
    <g id="7.cu_sy_18jfytylf78y0-fill" stroke="none" fill="none">
      <g>
        <path d="M 13 10L 13 10C 13 10 16 10 16 13L 16 13C 16 13 16 16 13 16L 13 16C 13 16 10 16 10 13L 10 13C 10 13 10 10 13 10"/>
      </g>
    </g>
    <g id="7.cu_sy_18jfytylf78y0-stroke" fill="none" stroke-linecap="round" stroke-linejoin="round" stroke-miterlimit="4" stroke="#fb6762" stroke-width="2">
      <g>
        <path d="M 13 10L 13 10C 13 10 16 10 16 13L 16 13C 16 13 16 16 13 16L 13 16C 13 16 10 16 10 13L 10 13C 10 13 10 10 13 10"/>
      </g>
    </g>
    <g id="7.cu_sy_18jfytylf78y0-stroke" fill="none" stroke-linecap="round" stroke-linejoin="round" stroke-miterlimit="4" stroke="#fb6762" stroke-width="2">
      <g>
        <path d="M 37 13L 16 13"/>
      </g>
    </g>
  </g>
  <g id="g-root-6.cu_sy_v8lxjqlf77d5-stroke-fill" data-item-order="-18020" transform="translate(197, 623)">
    <g id="6.cu_sy_v8lxjqlf77d5-fill" stroke="none" fill="none">
      <g>
        <path d="M 13 10L 13 10C 13 10 16 10 16 13L 16 13C 16 13 16 16 13 16L 13 16C 13 16 10 16 10 13L 10 13C 10 13 10 10 13 10"/>
      </g>
    </g>
    <g id="6.cu_sy_v8lxjqlf77d5-stroke" fill="none" stroke-linecap="round" stroke-linejoin="round" stroke-miterlimit="4" stroke="#f79438" stroke-width="2">
      <g>
        <path d="M 13 10L 13 10C 13 10 16 10 16 13L 16 13C 16 13 16 16 13 16L 13 16C 13 16 10 16 10 13L 10 13C 10 13 10 10 13 10"/>
      </g>
    </g>
    <g id="6.cu_sy_v8lxjqlf77d5-stroke" fill="none" stroke-linecap="round" stroke-linejoin="round" stroke-miterlimit="4" stroke="#f79438" stroke-width="2">
      <g>
        <path d="M 37 13L 16 13"/>
      </g>
    </g>
  </g>
  <g id="g-root-5.cu_sy_qssffalf785e-stroke-fill" data-item-order="-18016" transform="translate(197, 527)">
    <g id="5.cu_sy_qssffalf785e-fill" stroke="none" fill="none">
      <g>
        <path d="M 13 10L 13 10C 13 10 16 10 16 13L 16 13C 16 13 16 16 13 16L 13 16C 13 16 10 16 10 13L 10 13C 10 13 10 10 13 10"/>
      </g>
    </g>
    <g id="5.cu_sy_qssffalf785e-stroke" fill="none" stroke-linecap="round" stroke-linejoin="round" stroke-miterlimit="4" stroke="#ffe711" stroke-width="2">
      <g>
        <path d="M 13 10L 13 10C 13 10 16 10 16 13L 16 13C 16 13 16 16 13 16L 13 16C 13 16 10 16 10 13L 10 13C 10 13 10 10 13 10"/>
      </g>
    </g>
    <g id="5.cu_sy_qssffalf785e-stroke" fill="none" stroke-linecap="round" stroke-linejoin="round" stroke-miterlimit="4" stroke="#ffe711" stroke-width="2">
      <g>
        <path d="M 37 13L 16 13"/>
      </g>
    </g>
  </g>
  <g id="g-root-4.cu_sy_hx5f6elf78y3-stroke-fill" data-item-order="-18012" transform="translate(197, 431)">
    <g id="4.cu_sy_hx5f6elf78y3-fill" stroke="none" fill="none">
      <g>
        <path d="M 13 10L 13 10C 13 10 16 10 16 13L 16 13C 16 13 16 16 13 16L 13 16C 13 16 10 16 10 13L 10 13C 10 13 10 10 13 10"/>
      </g>
    </g>
    <g id="4.cu_sy_hx5f6elf78y3-stroke" fill="none" stroke-linecap="round" stroke-linejoin="round" stroke-miterlimit="4" stroke="#a6da37" stroke-width="2">
      <g>
        <path d="M 13 10L 13 10C 13 10 16 10 16 13L 16 13C 16 13 16 16 13 16L 13 16C 13 16 10 16 10 13L 10 13C 10 13 10 10 13 10"/>
      </g>
    </g>
    <g id="4.cu_sy_hx5f6elf78y3-stroke" fill="none" stroke-linecap="round" stroke-linejoin="round" stroke-miterlimit="4" stroke="#a6da37" stroke-width="2">
      <g>
        <path d="M 37 13L 16 13"/>
      </g>
    </g>
  </g>
  <g id="g-root-3.cu_sy_dhye52lf76kk-stroke-fill" data-item-order="-18008" transform="translate(197, 335)">
    <g id="3.cu_sy_dhye52lf76kk-fill" stroke="none" fill="none">
      <g>
        <path d="M 13 10L 13 10C 13 10 16 10 16 13L 16 13C 16 13 16 16 13 16L 13 16C 13 16 10 16 10 13L 10 13C 10 13 10 10 13 10"/>
      </g>
    </g>
    <g id="3.cu_sy_dhye52lf76kk-stroke" fill="none" stroke-linecap="round" stroke-linejoin="round" stroke-miterlimit="4" stroke="#43dd93" stroke-width="2">
      <g>
        <path d="M 13 10L 13 10C 13 10 16 10 16 13L 16 13C 16 13 16 16 13 16L 13 16C 13 16 10 16 10 13L 10 13C 10 13 10 10 13 10"/>
      </g>
    </g>
    <g id="3.cu_sy_dhye52lf76kk-stroke" fill="none" stroke-linecap="round" stroke-linejoin="round" stroke-miterlimit="4" stroke="#43dd93" stroke-width="2">
      <g>
        <path d="M 37 13L 16 13"/>
      </g>
    </g>
  </g>
  <g id="g-root-2.cu_sy_4mbdw6lf77d9-stroke-fill" data-item-order="-18004" transform="translate(197, 239)">
    <g id="2.cu_sy_4mbdw6lf77d9-fill" stroke="none" fill="none">
      <g>
        <path d="M 13 10L 13 10C 13 10 16 10 16 13L 16 13C 16 13 16 16 13 16L 13 16C 13 16 10 16 10 13L 10 13C 10 13 10 10 13 10"/>
      </g>
    </g>
    <g id="2.cu_sy_4mbdw6lf77d9-stroke" fill="none" stroke-linecap="round" stroke-linejoin="round" stroke-miterlimit="4" stroke="#1ac3fb" stroke-width="2">
      <g>
        <path d="M 13 10L 13 10C 13 10 16 10 16 13L 16 13C 16 13 16 16 13 16L 13 16C 13 16 10 16 10 13L 10 13C 10 13 10 10 13 10"/>
      </g>
    </g>
    <g id="2.cu_sy_4mbdw6lf77d9-stroke" fill="none" stroke-linecap="round" stroke-linejoin="round" stroke-miterlimit="4" stroke="#1ac3fb" stroke-width="2">
      <g>
        <path d="M 37 13L 16 13"/>
      </g>
    </g>
  </g>
  <g id="g-root-1.cu_sy_1qbyxhylf78r2-stroke-fill" data-item-order="-18000" transform="translate(197, 143)">
    <g id="1.cu_sy_1qbyxhylf78r2-fill" stroke="none" fill="none">
      <g>
        <path d="M 13 10L 13 10C 13 10 16 10 16 13L 16 13C 16 13 16 16 13 16L 13 16C 13 16 10 16 10 13L 10 13C 10 13 10 10 13 10"/>
      </g>
    </g>
    <g id="1.cu_sy_1qbyxhylf78r2-stroke" fill="none" stroke-linecap="round" stroke-linejoin="round" stroke-miterlimit="4" stroke="#4f91fc" stroke-width="2">
      <g>
        <path d="M 13 10L 13 10C 13 10 16 10 16 13L 16 13C 16 13 16 16 13 16L 13 16C 13 16 10 16 10 13L 10 13C 10 13 10 10 13 10"/>
      </g>
    </g>
    <g id="1.cu_sy_1qbyxhylf78r2-stroke" fill="none" stroke-linecap="round" stroke-linejoin="round" stroke-miterlimit="4" stroke="#4f91fc" stroke-width="2">
      <g>
        <path d="M 37 13L 16 13"/>
      </g>
    </g>
  </g>
  <g id="g-root-tx_albanias_1lw5fdilf79jb-stroke-fill" data-item-order="0" transform="translate(98, 50)">
    <g id="tx_albanias_1lw5fdilf79jb-fill" stroke="none" fill="#f4f4f4">
      <g>
        <text style="font: 20px Roboto, sans-serif; white-space: pre;" font-size="20px" font-family="Roboto, sans-serif">
          <tspan x="17.07" y="34" dominant-baseline="ideographic">Albania's UFO Journey: A Century of Sightings</tspan>
        </text>
      </g>
    </g>
  </g>
  <g id="g-root-tx_tiranass_145hvyulf78qo-stroke-fill" data-item-order="0" transform="translate(248, 710)">
    <g id="tx_tiranass_145hvyulf78qo-fill" stroke="none" fill="#f4f4f4">
      <g>
        <text style="font: 20px Roboto, sans-serif; white-space: pre;" font-size="20px" font-family="Roboto, sans-serif">
          <tspan x="12" y="34" dominant-baseline="ideographic">Tirana's sighting of orange spherical objects</tspan>
        </text>
      </g>
    </g>
  </g>
  <g id="g-root-tx_roskovec_qunuomlf775t-stroke-fill" data-item-order="0" transform="translate(248, 602)">
    <g id="tx_roskovec_qunuomlf775t-fill" stroke="none" fill="#f4f4f4">
      <g>
        <text style="font: 20px Roboto, sans-serif; white-space: pre;" font-size="20px" font-family="Roboto, sans-serif">
          <tspan x="12" y="34" dominant-baseline="ideographic">Roskovec UFO landing with physical </tspan>
          <tspan x="12" y="58" dominant-baseline="ideographic">evidence</tspan>
        </text>
      </g>
    </g>
  </g>
  <g id="g-root-tx_crriksil_dj7cbalf78qq-stroke-fill" data-item-order="0" transform="translate(248, 518)">
    <g id="tx_crriksil_dj7cbalf78qq-fill" stroke="none" fill="#f4f4f4">
      <g>
        <text style="font: 20px Roboto, sans-serif; white-space: pre;" font-size="20px" font-family="Roboto, sans-serif">
          <tspan x="12" y="34" dominant-baseline="ideographic">Cërrik's illuminated flying object</tspan>
        </text>
      </g>
    </g>
  </g>
  <g id="g-root-tx_gzimdapi_8db12lf775v-stroke-fill" data-item-order="0" transform="translate(248, 410)">
    <g id="tx_gzimdapi_8db12lf775v-fill" stroke="none" fill="#f4f4f4">
      <g>
        <text style="font: 20px Roboto, sans-serif; white-space: pre;" font-size="20px" font-family="Roboto, sans-serif">
          <tspan x="12" y="34" dominant-baseline="ideographic">Gëzim Dapi's military UFO sighting in </tspan>
          <tspan x="12" y="58" dominant-baseline="ideographic">Shkodër</tspan>
        </text>
      </g>
    </g>
  </g>
  <g id="g-root-tx_brightob_1ly0umulf78jo-stroke-fill" data-item-order="0" transform="translate(248, 326)">
    <g id="tx_brightob_1ly0umulf78jo-fill" stroke="none" fill="#f4f4f4">
      <g>
        <text style="font: 20px Roboto, sans-serif; white-space: pre;" font-size="20px" font-family="Roboto, sans-serif">
          <tspan x="12" y="34" dominant-baseline="ideographic">Bright object sighted in Kallamishtëz</tspan>
        </text>
      </g>
    </g>
  </g>
  <g id="g-root-tx_unusuala_18n6tcmlf76yt-stroke-fill" data-item-order="0" transform="translate(248, 230)">
    <g id="tx_unusuala_18n6tcmlf76yt-fill" stroke="none" fill="#f4f4f4">
      <g>
        <text style="font: 20px Roboto, sans-serif; white-space: pre;" font-size="20px" font-family="Roboto, sans-serif">
          <tspan x="12" y="34" dominant-baseline="ideographic">Unusual aerial incident over Vlorë</tspan>
        </text>
      </g>
    </g>
  </g>
  <g id="g-root-tx_mihalgra_zrjt3qlf77ri-stroke-fill" data-item-order="0" transform="translate(248, 122)">
    <g id="tx_mihalgra_zrjt3qlf77ri-fill" stroke="none" fill="#f4f4f4">
      <g>
        <text style="font: 20px Roboto, sans-serif; white-space: pre;" font-size="20px" font-family="Roboto, sans-serif">
          <tspan x="12" y="34" dominant-baseline="ideographic">Mihal Grameno's UFO encounter during </tspan>
          <tspan x="12" y="58" dominant-baseline="ideographic">guerrilla warfare</tspan>
        </text>
      </g>
    </g>
  </g>
  <g id="g-root-tx_august72_mg3aqelf79cf-stroke-fill" data-item-order="0" transform="translate(32, 710)">
    <g id="tx_august72_mg3aqelf79cf-fill" stroke="none" fill="#fb6762">
      <g>
        <text style="font: bold 20px Roboto, sans-serif; white-space: pre;" font-weight="bold" font-size="20px" font-family="Roboto, sans-serif">
          <tspan x="15.56" y="34" dominant-baseline="ideographic">August 7, 2010</tspan>
        </text>
      </g>
    </g>
  </g>
  <g id="g-root-tx_may42006_i0w9p2lf76yw-stroke-fill" data-item-order="0" transform="translate(56, 614)">
    <g id="tx_may42006_i0w9p2lf76yw-fill" stroke="none" fill="#f79438">
      <g>
        <text style="font: bold 20px Roboto, sans-serif; white-space: pre;" font-weight="bold" font-size="20px" font-family="Roboto, sans-serif">
          <tspan x="17.63" y="34" dominant-baseline="ideographic">May 4, 2006</tspan>
        </text>
      </g>
    </g>
  </g>
  <g id="g-root-tx_july1219_dl2rkmlf77r5-stroke-fill" data-item-order="0" transform="translate(44, 518)">
    <g id="tx_july1219_dl2rkmlf77r5-fill" stroke="none" fill="#ffe711">
      <g>
        <text style="font: bold 20px Roboto, sans-serif; white-space: pre;" font-weight="bold" font-size="20px" font-family="Roboto, sans-serif">
          <tspan x="18.55" y="34" dominant-baseline="ideographic">July 12, 1993</tspan>
        </text>
      </g>
    </g>
  </g>
  <g id="g-root-tx_august11_9m97alf79c2-stroke-fill" data-item-order="0" transform="translate(32, 422)">
    <g id="tx_august11_9m97alf79c2-fill" stroke="none" fill="#a6da37">
      <g>
        <text style="font: bold 20px Roboto, sans-serif; white-space: pre;" font-weight="bold" font-size="20px" font-family="Roboto, sans-serif">
          <tspan x="15.56" y="34" dominant-baseline="ideographic">August 1, 1990</tspan>
        </text>
      </g>
    </g>
  </g>
  <g id="g-root-tx_january1_1lpwoielf8m4j-stroke-fill" data-item-order="0" transform="translate(44, 326)">
    <g id="tx_january1_1lpwoielf8m4j-fill" stroke="none" fill="#43dd93">
      <g>
        <text style="font: bold 20px Roboto, sans-serif; white-space: pre;" font-weight="bold" font-size="20px" font-family="Roboto, sans-serif">
          <tspan x="16.56" y="34" dominant-baseline="ideographic">January 1963</tspan>
        </text>
      </g>
    </g>
  </g>
  <g id="g-root-tx_july8193_18eg652lf8npg-stroke-fill" data-item-order="0" transform="translate(56, 230)">
    <g id="tx_july8193_18eg652lf8npg-fill" stroke="none" fill="#1ac3fb">
      <g>
        <text style="font: bold 20px Roboto, sans-serif; white-space: pre;" font-weight="bold" font-size="20px" font-family="Roboto, sans-serif">
          <tspan x="18.02" y="34" dominant-baseline="ideographic">July 8, 1933</tspan>
        </text>
      </g>
    </g>
  </g>
  <g id="g-root-tx_19071908_zjfmzalf8lcd-stroke-fill" data-item-order="0" transform="translate(68, 134)">
    <g id="tx_19071908_zjfmzalf8lcd-fill" stroke="none" fill="#4f91fc">
      <g>
        <text style="font: bold 20px Roboto, sans-serif; white-space: pre;" font-weight="bold" font-size="20px" font-family="Roboto, sans-serif">
          <tspan x="16.31" y="34" dominant-baseline="ideographic">1907-1908</tspan>
        </text>
      </g>
    </g>
    <defs>
      <pattern id="crawlingPattern-0000001b" x="0" y="0" width="12" height="12" patternUnits="userSpaceOnUse" fill="#0000001b">
        <use href="#crawlingSymbol"/>
      </pattern>
      <symbol id="crawlingSymbol">
        <g>
          <path d="M -12.5 12.5 l 13 -13 l 6 0 l -13 13 Z M -0.5 12.5 l 13 -13 l 6 0 l -13 13 Z M 11.5 12.5 l 13 -13 l 6 0 l -13 13 Z"/>
        </g>
      </symbol>
      <pattern id="crawlingPattern-f9080081" x="0" y="0" width="12" height="12" patternUnits="userSpaceOnUse" fill="#f9080081">
        <use href="#crawlingSymbol"/>
      </pattern>
      <pattern id="crawlingPattern-f17400d3" x="0" y="0" width="12" height="12" patternUnits="userSpaceOnUse" fill="#f17400d3">
        <use href="#crawlingSymbol"/>
      </pattern>
      <pattern id="crawlingPattern-ddc700ff" x="0" y="0" width="12" height="12" patternUnits="userSpaceOnUse" fill="#ddc700ff">
        <use href="#crawlingSymbol"/>
      </pattern>
      <pattern id="crawlingPattern-5c87005e" x="0" y="0" width="12" height="12" patternUnits="userSpaceOnUse" fill="#5c87005e">
        <use href="#crawlingSymbol"/>
      </pattern>
      <pattern id="crawlingPattern-00b15c75" x="0" y="0" width="12" height="12" patternUnits="userSpaceOnUse" fill="#00b15c75">
        <use href="#crawlingSymbol"/>
      </pattern>
      <pattern id="crawlingPattern-00a3d9d9" x="0" y="0" width="12" height="12" patternUnits="userSpaceOnUse" fill="#00a3d9d9">
        <use href="#crawlingSymbol"/>
      </pattern>
      <pattern id="crawlingPattern-0060fba2" x="0" y="0" width="12" height="12" patternUnits="userSpaceOnUse" fill="#0060fba2">
        <use href="#crawlingSymbol"/>
      </pattern>
    </defs>
  </g>
</svg>
