<?xml version='1.0' encoding='UTF-8'?>
<svg xmlns="http://www.w3.org/2000/svg" xmlns:xlink="http://www.w3.org/1999/xlink" width="840" height="624" viewBox="0 0 840 624" style="fill:none;stroke:none;fill-rule:evenodd;clip-rule:evenodd;stroke-linecap:round;stroke-linejoin:round;stroke-miterlimit:1.5;" version="1.1">
  <style class="text-font-style fontImports" data-font-family="Roboto">@import url('https://fonts.googleapis.com/css2?family=Roboto:wght@400;700&amp;display=block');</style>
  <rect x="0" y="0" width="8.4E+2" height="624" fill="#2c2c2c" stroke="none" id="programmatic_background"/>
  <g id="g-root-tf_dik946in72fi-stroke-fill" data-item-order="-489600" transform="translate(2, 2)">
    <g id="tf_dik946in72fi-fill" stroke="none" fill="#2c2c2c">
      <g>
        <path d="M 10 10L 826 10L 826 610L 10 610Z"/>
      </g>
    </g>
    <defs>
      <pattern id="crawlingPattern-b5b5b51a" x="0" y="0" width="12" height="12" patternUnits="userSpaceOnUse" fill="#b5b5b51a">
        <use href="#crawlingSymbol"/>
      </pattern>
      <symbol id="crawlingSymbol">
        <g>
          <path d="M -12.5 12.5 l 13 -13 l 6 0 l -13 13 Z M -0.5 12.5 l 13 -13 l 6 0 l -13 13 Z M 11.5 12.5 l 13 -13 l 6 0 l -13 13 Z"/>
        </g>
      </symbol>
      <pattern id="crawlingPattern-8ed00028" x="0" y="0" width="12" height="12" patternUnits="userSpaceOnUse" fill="#8ed00028">
        <use href="#crawlingSymbol"/>
      </pattern>
      <pattern id="crawlingPattern-ec07911a" x="0" y="0" width="12" height="12" patternUnits="userSpaceOnUse" fill="#ec07911a">
        <use href="#crawlingSymbol"/>
      </pattern>
      <pattern id="crawlingPattern-00bcfb62" x="0" y="0" width="12" height="12" patternUnits="userSpaceOnUse" fill="#00bcfb62">
        <use href="#crawlingSymbol"/>
      </pattern>
      <pattern id="crawlingPattern-00d16d21" x="0" y="0" width="12" height="12" patternUnits="userSpaceOnUse" fill="#00d16d21">
        <use href="#crawlingSymbol"/>
      </pattern>
      <pattern id="crawlingPattern-ffe50099" x="0" y="0" width="12" height="12" patternUnits="userSpaceOnUse" fill="#ffe50099">
        <use href="#crawlingSymbol"/>
      </pattern>
      <pattern id="crawlingPattern-f576002d" x="0" y="0" width="12" height="12" patternUnits="userSpaceOnUse" fill="#f576002d">
        <use href="#crawlingSymbol"/>
      </pattern>
      <pattern id="crawlingPattern-0000001b" x="0" y="0" width="12" height="12" patternUnits="userSpaceOnUse" fill="#0000001b">
        <use href="#crawlingSymbol"/>
      </pattern>
      <pattern id="crawlingPattern-c1c1c11a" x="0" y="0" width="12" height="12" patternUnits="userSpaceOnUse" fill="#c1c1c11a">
        <use href="#crawlingSymbol"/>
      </pattern>
      <pattern id="crawlingPattern-acff003c" x="0" y="0" width="12" height="12" patternUnits="userSpaceOnUse" fill="#acff003c">
        <use href="#crawlingSymbol"/>
      </pattern>
      <pattern id="crawlingPattern-ff009b38" x="0" y="0" width="12" height="12" patternUnits="userSpaceOnUse" fill="#ff009b38">
        <use href="#crawlingSymbol"/>
      </pattern>
      <pattern id="crawlingPattern-00baff39" x="0" y="0" width="12" height="12" patternUnits="userSpaceOnUse" fill="#00baff39">
        <use href="#crawlingSymbol"/>
      </pattern>
      <pattern id="crawlingPattern-00ff873a" x="0" y="0" width="12" height="12" patternUnits="userSpaceOnUse" fill="#00ff873a">
        <use href="#crawlingSymbol"/>
      </pattern>
      <pattern id="crawlingPattern-ffe7003d" x="0" y="0" width="12" height="12" patternUnits="userSpaceOnUse" fill="#ffe7003d">
        <use href="#crawlingSymbol"/>
      </pattern>
      <pattern id="crawlingPattern-ff7b003a" x="0" y="0" width="12" height="12" patternUnits="userSpaceOnUse" fill="#ff7b003a">
        <use href="#crawlingSymbol"/>
      </pattern>
      <pattern id="crawlingPattern-ddc700ff" x="0" y="0" width="12" height="12" patternUnits="userSpaceOnUse" fill="#ddc700ff">
        <use href="#crawlingSymbol"/>
      </pattern>
      <pattern id="crawlingPattern-00a3d9d9" x="0" y="0" width="12" height="12" patternUnits="userSpaceOnUse" fill="#00a3d9d9">
        <use href="#crawlingSymbol"/>
      </pattern>
      <pattern id="crawlingPattern-eb008e76" x="0" y="0" width="12" height="12" patternUnits="userSpaceOnUse" fill="#eb008e76">
        <use href="#crawlingSymbol"/>
      </pattern>
      <pattern id="crawlingPattern-5c87005e" x="0" y="0" width="12" height="12" patternUnits="userSpaceOnUse" fill="#5c87005e">
        <use href="#crawlingSymbol"/>
      </pattern>
      <pattern id="crawlingPattern-00b15c75" x="0" y="0" width="12" height="12" patternUnits="userSpaceOnUse" fill="#00b15c75">
        <use href="#crawlingSymbol"/>
      </pattern>
      <pattern id="crawlingPattern-f17400d3" x="0" y="0" width="12" height="12" patternUnits="userSpaceOnUse" fill="#f17400d3">
        <use href="#crawlingSymbol"/>
      </pattern>
      <pattern id="crawlingPattern-5f5f5f1a" x="0" y="0" width="12" height="12" patternUnits="userSpaceOnUse" fill="#5f5f5f1a">
        <use href="#crawlingSymbol"/>
      </pattern>
    </defs>
  </g>
  <g id="g-root-0.cu_sy_13ylyquiniadf-stroke-fill" data-item-order="-150739" transform="translate(301.00885009765625, 218)">
    <g id="0.cu_sy_13ylyquiniadf-fill" stroke="none" fill="#e8e8e8">
      <g>
        <path d="M 41.8313 44.4598C 26.76 59.2893 15.5897 78.0715 10.000011 99.1266L 40.8737 130L 10 160.873C 15.625 182.062 26.9016 200.948 42.1177 215.821L 82.5012 205L 93.3555 245.509C 103.7319 248.435 114.679 250 125.991 250C 136.943 250 147.552 248.533 157.632 245.785L 168.561 205L 209.666 216.015C 224.605 201.48 235.77 183.087 241.554 162.445L 209.109 130L 241.554 97.5554C 235.807 77.0458 224.748 58.7566 209.954 44.266L 168.56 55.3574L 157.529 14.1873C 147.479 11.4571 136.905 10 125.991 10C 114.716 10 103.8049 11.5549 93.4592 14.462L 82.5017 55.3574L 41.8313 44.4598Z"/>
      </g>
    </g>
    <g id="0.cu_sy_13ylyquiniadf-stroke" fill="none" stroke-linecap="round" stroke-linejoin="round" stroke-miterlimit="4" stroke="#2c2c2c" stroke-width="2">
      <g>
        <path d="M 41.8313 44.4598C 26.76 59.2893 15.5897 78.0715 10 99.1266M 10 160.8734C 15.625 182.0616 26.9016 200.9481 42.1177 215.8211M 93.3555 245.5088C 103.7319 248.4347 114.6787 250 125.9911 250C 136.9428 250 147.5518 248.5329 157.6324 245.7846M 209.6662 216.0146C 224.6048 201.4798 235.7702 183.0868 241.5537 162.4445M 241.5536 97.5554C 235.8074 77.0458 224.748 58.7566 209.9536 44.266M 157.5289 14.1873C 147.4793 11.4571 136.9054 10 125.9911 10C 114.7164 10 103.8049 11.5549 93.4592 14.462"/>
      </g>
    </g>
  </g>
  <g id="g-root-6.cu_sy_v2yyhyinib64-stroke-fill" data-item-order="-150735" transform="translate(291.5610656738281, 156.56155395507812)">
    <g id="6.cu_sy_v2yyhyinib64-fill" stroke="none" fill="#a6da37">
      <g>
        <path d="M 45.585069 104.372569C 33.719169 101.193169 23.066269 93.487169 16.438769 82.007969C 3.183969 59.049969 11.049969 29.693569 34.007969 16.438769C 56.966069 3.183969 86.322369 11.049969 99.577169 34.007969C 106.204669 45.486969 107.551869 58.565569 104.372469 70.431269L 91.949469 116.795969L 45.595669 104.375369C 45.592169 104.374469 45.588569 104.373469 45.585069 104.372569Z"/>
      </g>
    </g>
    <g id="6.cu_sy_v2yyhyinib64-stroke" fill="none" stroke-linecap="round" stroke-linejoin="round" stroke-miterlimit="4" stroke="#2c2c2c" stroke-width="2">
      <g>
        <path d="M 45.585069 104.372569C 33.719169 101.193169 23.066269 93.487169 16.438769 82.007969C 3.183969 59.049969 11.049969 29.693569 34.007969 16.438769C 56.966069 3.183969 86.322369 11.049969 99.577169 34.007969C 106.204669 45.486969 107.551869 58.565569 104.372469 70.431269L 91.949469 116.795869L 45.595669 104.375369C 45.592169 104.374469 45.588569 104.373469 45.585069 104.372569Z"/>
      </g>
    </g>
  </g>
  <g id="g-root-5.cu_sy_qn5gdiinibyd-stroke-fill" data-item-order="-150731" transform="translate(216, 290)">
    <g id="5.cu_sy_qn5gdiinibyd-fill" stroke="none" fill="#f366bb">
      <g>
        <path d="M 91.9414 91.9408C 83.2551 100.6273 71.255 106 58 106C 31.4903 106 10.000001 84.5097 10 58C 9.999999 31.4903 31.4903 10.000001 58 10C 71.2548 9.999999 83.2548 15.3726 91.9411 24.0589L 125.883 57.9997L 91.9492 91.9331C 91.9466 91.9356 91.944 91.9382 91.9414 91.9408Z"/>
      </g>
    </g>
    <g id="5.cu_sy_qn5gdiinibyd-stroke" fill="none" stroke-linecap="round" stroke-linejoin="round" stroke-miterlimit="4" stroke="#2c2c2c" stroke-width="2">
      <g>
        <path d="M 91.9414 91.9408C 83.2551 100.6273 71.255 106 58 106C 31.4903 106 10 84.5097 10 58C 10 31.4903 31.4903 10 58 10C 71.2548 9.999999 83.2548 15.3726 91.9411 24.0589L 125.8825 57.9997L 91.9492 91.9331C 91.9466 91.9356 91.944 91.9382 91.9414 91.9408Z"/>
      </g>
    </g>
  </g>
  <g id="g-root-4.cu_sy_hs4x7qini9la-stroke-fill" data-item-order="-150727" transform="translate(291.5610656738281, 413)">
    <g id="4.cu_sy_hs4x7qini9la-fill" stroke="none" fill="#1ac3fb">
      <g>
        <path d="M 104.372369 56.3644C 107.551869 68.2302 106.204669 81.309 99.577169 92.7881C 86.322369 115.746 56.966069 123.612 34.007969 110.357C 11.049969 97.1025 3.183969 67.7462 16.438769 44.7881C 23.066169 33.3091 33.718969 25.6031 45.584669 22.4237L 91.948969 10L 104.369469 56.3538C 104.370369 56.3573 104.371369 56.3609 104.372369 56.3644Z"/>
      </g>
    </g>
    <g id="4.cu_sy_hs4x7qini9la-stroke" fill="none" stroke-linecap="round" stroke-linejoin="round" stroke-miterlimit="4" stroke="#2c2c2c" stroke-width="2">
      <g>
        <path d="M 104.372369 56.3644C 107.551869 68.2302 106.204669 81.309 99.577169 92.7881C 86.322369 115.7462 56.966069 123.6122 34.007969 110.3574C 11.049969 97.1025 3.183969 67.7462 16.438769 44.7881C 23.066169 33.3091 33.718969 25.6031 45.584669 22.4237L 91.948969 10L 104.369469 56.3538C 104.370369 56.3573 104.371369 56.3609 104.372369 56.3644Z"/>
      </g>
    </g>
  </g>
  <g id="g-root-3.cu_sy_dcbf3ainiadj-stroke-fill" data-item-order="-150723" transform="translate(445.50244140625, 413)">
    <g id="3.cu_sy_dcbf3ainiadj-fill" stroke="none" fill="#43dd93">
      <g>
        <path d="M 11.6437 56.3644C 8.4641 68.2302 9.8113 81.309 16.4388 92.7881C 29.6936 115.746 59.05 123.612 82.008 110.357C 104.9661 97.1025 112.832 67.7462 99.5772 44.7881C 92.9498 33.3091 82.297 25.6031 70.4313 22.4237L 24.067 10L 11.6465 56.3538C 11.6456 56.3573 11.6446 56.3609 11.6437 56.3644Z"/>
      </g>
    </g>
    <g id="3.cu_sy_dcbf3ainiadj-stroke" fill="none" stroke-linecap="round" stroke-linejoin="round" stroke-miterlimit="4" stroke="#2c2c2c" stroke-width="2">
      <g>
        <path d="M 11.6437 56.3644C 8.4641 68.2302 9.8113 81.309 16.4388 92.7881C 29.6936 115.7462 59.05 123.6122 82.008 110.3574C 104.9661 97.1025 112.8321 67.7462 99.5772 44.7881C 92.9498 33.3091 82.297 25.6031 70.4313 22.4237L 24.067 10L 11.6465 56.3538C 11.6456 56.3573 11.6446 56.3609 11.6437 56.3644Z"/>
      </g>
    </g>
  </g>
  <g id="g-root-2.cu_sy_8whwyuinib5s-stroke-fill" data-item-order="-150719" transform="translate(500.11767578125, 290)">
    <g id="2.cu_sy_8whwyuinib5s-fill" stroke="none" fill="#ffe711">
      <g>
        <path d="M 43.9411 91.9408C 52.6274 100.6273 64.6276 106 77.8825 106C 104.3922 106 125.883 84.5097 125.883 58C 125.883 31.4903 104.3922 10.000001 77.8825 10C 64.6277 9.999999 52.6277 15.3726 43.9414 24.0589L 10 57.9997L 43.9333 91.9331C 43.9359 91.9356 43.9385 91.9382 43.9411 91.9408Z"/>
      </g>
    </g>
    <g id="2.cu_sy_8whwyuinib5s-stroke" fill="none" stroke-linecap="round" stroke-linejoin="round" stroke-miterlimit="4" stroke="#2c2c2c" stroke-width="2">
      <g>
        <path d="M 43.9411 91.9408C 52.6274 100.6273 64.6276 106 77.8825 106C 104.3922 106 125.8825 84.5097 125.8825 58C 125.8825 31.4903 104.3922 10 77.8825 10C 64.6277 9.999999 52.6277 15.3726 43.9414 24.0589L 10 57.9997L 43.9333 91.9331C 43.9359 91.9356 43.9385 91.9382 43.9411 91.9408Z"/>
      </g>
    </g>
  </g>
  <g id="g-root-1.cu_sy_1um5gkminicjl-stroke-fill" data-item-order="-150715" transform="translate(445.5024719238281, 156.56155395507812)">
    <g id="1.cu_sy_1um5gkminicjl-fill" stroke="none" fill="#f79438">
      <g>
        <path d="M 70.430869 104.372569C 82.296769 101.193169 92.949669 93.487169 99.577169 82.007969C 112.831969 59.049969 104.966069 29.693569 82.007969 16.438769C 59.049969 3.183969 29.693569 11.049969 16.438769 34.007969C 9.811369 45.486969 8.464169 58.565569 11.643569 70.431269L 24.066469 116.795969L 70.420269 104.375369C 70.423769 104.374469 70.427369 104.373469 70.430869 104.372569Z"/>
      </g>
    </g>
    <g id="1.cu_sy_1um5gkminicjl-stroke" fill="none" stroke-linecap="round" stroke-linejoin="round" stroke-miterlimit="4" stroke="#2c2c2c" stroke-width="2">
      <g>
        <path d="M 70.430869 104.372569C 82.296769 101.193169 92.949669 93.487169 99.577169 82.007969C 112.832069 59.049969 104.966069 29.693569 82.007969 16.438769C 59.049969 3.183969 29.693569 11.049969 16.438769 34.007969C 9.811369 45.486969 8.464169 58.565569 11.643569 70.431269L 24.066469 116.795869L 70.420269 104.375369C 70.423769 104.374469 70.427369 104.373469 70.430869 104.372569Z"/>
      </g>
    </g>
  </g>
  <g id="g-root-sear_4pf57qin48ap-stroke-fill" data-item-order="-9216" transform="translate(368, 290)">
    <g id="sear_4pf57qin48ap-fill" stroke="none" fill="#f4f4f4">
      <g>
        <path d="M 53.279999 89.480003C 51.993992 87.698181 49.511417 87.287392 47.720001 88.559998C 47.39616 88.737907 47.003845 88.737907 46.68 88.560005C 46.337475 88.464455 46.075821 88.187416 45.999996 87.839996L 46 36.639999C 46.003101 35.990814 46.314999 35.381866 46.84 35L 64.400002 22.439999C 64.723846 22.262096 65.116158 22.262096 65.440002 22.440001C 65.783638 22.597496 66.002869 22.941994 66 23.32L 66 46C 66 48.209141 67.790863 50 70 50C 72.209137 50 74 48.209141 74 46L 74 23.24C 73.997124 22.861996 74.216354 22.517494 74.559998 22.360001C 74.883842 22.182098 75.276161 22.182098 75.599998 22.360001L 93.160004 34.919998C 93.684998 35.301868 93.996895 35.910816 94 36.559998L 94 54.48C 94 56.68914 95.790863 58.48 98 58.48C 100.209137 58.48 102 56.68914 102 54.48L 102 34.48C 102.004219 32.540165 101.06411 30.719637 99.480003 29.6L 73.479996 11.12C 71.397018 9.636931 68.602989 9.636931 66.520004 11.12L 43.279999 27.68C 42.586185 28.220537 41.613808 28.220537 40.919998 27.679998L 19.720001 11.28C 17.90016 9.866409 15.437565 9.603113 13.36 10.6C 11.306272 11.616827 10.004887 13.708338 10 16L 10 75.559998C 10.006244 77.447067 10.894094 79.222763 12.4 80.360001L 38.440002 99.879997C 39.478577 100.658936 40.741779 101.080002 42.040001 101.080002C 43.286201 101.064911 44.498932 100.674606 45.519997 99.959991L 52.360001 95.040001C 54.141823 93.75399 54.552608 91.271416 53.279999 89.480003ZM 18 22C 18 21.621227 18.214003 21.274965 18.552788 21.105572C 18.891571 20.93618 19.296982 20.972736 19.6 21.200001L 37.239998 34.799999C 37.757378 35.198429 38.042347 35.828362 38 36.48L 38 87.559998C 38.002869 87.937996 37.783642 88.282501 37.439999 88.439995C 37.116158 88.617905 36.723843 88.617905 36.400002 88.440002L 18.799999 75.239998C 18.301247 74.858253 18.006142 74.268051 18 73.639999ZM 104.839996 104.839996C 105.597252 104.088936 106.023193 103.066551 106.023193 102C 106.023193 100.933449 105.597252 99.911064 104.839996 99.160004L 95.239998 89.599998C 94.599464 88.946495 94.484146 87.941612 94.959999 87.160004C 100.578041 77.615211 98.224709 65.382172 89.466347 58.603046C 80.707985 51.823925 68.27562 52.612587 60.444103 60.444103C 52.612587 68.27562 51.823925 80.707985 58.603046 89.466347C 65.382172 98.224709 77.615211 100.578041 87.160004 94.959999C 87.941612 94.484146 88.946495 94.599464 89.599998 95.239998L 99.160004 104.839996C 99.911064 105.597252 100.933449 106.023193 102 106.023193C 103.066551 106.023193 104.088936 105.597252 104.839996 104.839996ZM 62 76C 62.000004 68.268021 68.268021 62.000004 76 62.000004C 83.731987 62.000004 90 68.268021 90 76C 90 83.731987 83.731987 90 76 90C 68.268021 90.000008 62.000004 83.731987 62.000004 76Z"/>
      </g>
    </g>
  </g>
  <g id="g-root-pen_18fof1iinibrf-stroke-fill" data-item-order="-2304" transform="translate(314, 182)">
    <g id="pen_18fof1iinibrf-fill" stroke="none" fill="#f4f4f4">
      <g>
        <path d="M 26 24.82C 25.343399 24.318243 24.407818 24.424156 23.879999 25.059999L 20.880001 28.76L 19.060001 26.940001C 18.686058 26.538694 18.12289 26.373503 17.591423 26.50923C 17.059956 26.644958 16.644958 27.059958 16.50923 27.591423C 16.373503 28.12289 16.538694 28.68606 16.940001 29.060001L 20 32C 20.288891 32.289452 20.681049 32.45211 21.09 32.45211C 21.498951 32.45211 21.891109 32.289452 22.18 32L 26.18 27C 26.446945 26.68779 26.578096 26.28187 26.544294 25.87249C 26.510492 25.463108 26.314539 25.084198 26 24.82ZM 10 10M 23.82 36L 20.880001 39.760002L 19.060001 38C 18.752392 37.458977 18.142647 37.164097 17.527548 37.258896C 16.912451 37.353695 16.419783 37.818474 16.289345 38.42701C 16.158907 39.035553 16.417795 39.661423 16.940001 40L 20 43.060001C 20.307163 43.353313 20.721825 43.506752 21.145931 43.484032C 21.570036 43.461311 21.965931 43.26445 22.24 42.939999L 26.24 37.940002C 26.775593 37.271729 26.668095 36.295815 25.999886 35.760143C 25.331676 35.224472 24.355751 35.331856 23.82 36ZM 51 26L 44 26C 43.447716 26 43 26.447716 43 27L 43 46C 43 47.656857 44.343147 49 46 49L 49 49C 50.656857 49 52 47.656857 52 46L 52 27C 52 26.447716 51.552284 26 51 26ZM 58 16C 58 12.686292 55.313709 10 52 10L 44 10C 43.447716 10 43 10.447715 43 11L 43 23C 43 23.552284 43.447716 24 44 24L 51 24C 51.552284 24 52 23.552284 52 23L 52 14C 53.104568 14 54 14.895431 54 16L 54 32C 54 33.104568 54.895432 34 56 34C 57.104568 34 58 33.104568 58 32ZM 40 16C 40 14.895431 39.104568 14 38 14L 12 14C 10.895431 14 10 14.895431 10 16L 10 52C 10 53.104568 10.895431 54 12 54L 38 54C 39.104568 54 40 53.104568 40 52C 40 50.895432 39.104568 50 38 50L 14 50L 14 18L 38 18C 39.104568 18 40 17.104568 40 16ZM 35 28.5L 30 28.5C 29.171574 28.5 28.5 29.171574 28.5 30C 28.5 30.828428 29.171574 31.5 30 31.5L 35 31.5C 35.82843 31.5 36.5 30.828428 36.5 30C 36.5 29.171574 35.82843 28.5 35 28.5ZM 35 39.5L 30 39.5C 29.171574 39.5 28.5 40.171574 28.5 41C 28.5 41.82843 29.171574 42.5 30 42.5L 35 42.5C 35.82843 42.5 36.5 41.82843 36.5 41C 36.5 40.171574 35.82843 39.5 35 39.5ZM 47.5 51C 46.395432 51 45.5 51.895432 45.5 53L 45.5 56C 45.5 57.104568 46.395432 58 47.5 58C 48.604568 58 49.5 57.104568 49.5 56L 49.5 53C 49.5 51.895432 48.604568 51 47.5 51Z"/>
      </g>
    </g>
  </g>
  <g id="g-root-pres_1hbbfaeinjock-stroke-fill" data-item-order="-2304" transform="translate(236, 314)">
    <g id="pres_1hbbfaeinjock-fill" stroke="none" fill="#f4f4f4">
      <g>
        <path d="M 27 28L 41 28C 41.314026 27.996929 41.609127 27.849377 41.799999 27.6C 42.002758 27.355135 42.077007 27.028448 42 26.719999C 41.280678 24.094059 39.335999 21.978008 36.779999 21.040001C 36.607948 20.975582 36.485077 20.821999 36.459999 20.639999C 36.42672 20.454617 36.504932 20.266903 36.659996 20.16C 38.249641 19.021635 38.92231 16.987049 38.324501 15.125476C 37.726685 13.263903 35.995209 12.001367 34.040001 12.001367C 32.084793 12.001367 30.353313 13.263903 29.755503 15.125476C 29.15769 16.987049 29.830359 19.021635 31.42 20.16C 31.584194 20.259277 31.665123 20.453506 31.619999 20.639999C 31.594921 20.821999 31.472054 20.975582 31.299999 21.040001C 28.713268 21.956497 26.735474 24.076096 26 26.720001C 25.911869 27.022167 25.971146 27.348194 26.16 27.6C 26.359344 27.860704 26.671955 28.009565 27 28ZM 58 45.720001C 57.283939 43.069881 55.320942 40.935211 52.740002 40C 52.567947 39.935581 52.44508 39.781998 52.419998 39.599998C 52.386719 39.414619 52.464931 39.226902 52.619999 39.119999C 54.209641 37.981636 54.882309 35.947052 54.2845 34.085476C 53.686687 32.2239 51.955208 30.961367 50 30.961367C 48.044792 30.961367 46.313313 32.2239 45.715504 34.085476C 45.117691 35.947052 45.790359 37.981636 47.380001 39.120003C 47.544193 39.219276 47.625122 39.413506 47.579998 39.599998C 47.55492 39.781998 47.432053 39.935581 47.259998 40C 46.541882 40.246288 45.866966 40.603992 45.259998 41.059998C 45.097313 41.170048 45.018089 41.368111 45.059998 41.559998L 46 46.599998C 46.055077 46.832302 46.261269 46.997257 46.499996 46.999996L 57 47C 57.314022 46.996929 57.609127 46.849377 57.799999 46.599998C 58.002758 46.355133 58.077007 46.02845 58 45.720001ZM 22.959999 41.599998C 23.001909 41.408112 22.922684 41.210049 22.759998 41.099998C 22.15303 40.64399 21.478119 40.286285 20.759998 40.040001C 20.587948 39.975582 20.46508 39.821999 20.439999 39.639999C 20.406719 39.454617 20.484934 39.266903 20.639999 39.159996C 22.229641 38.021637 22.902309 35.987053 22.304499 34.125477C 21.706688 32.263901 19.975208 31.001366 18.02 31.001366C 16.064793 31.001366 14.333313 32.263901 13.735502 34.125477C 13.137691 35.987053 13.810358 38.021637 15.4 39.16C 15.564194 39.259277 15.645123 39.453506 15.6 39.639999C 15.574921 39.821999 15.452053 39.975582 15.280001 40.040001C 12.700951 40.961906 10.731451 43.080608 10 45.720001C 9.911868 46.022167 9.971146 46.348194 10.16 46.599998C 10.350872 46.849377 10.645976 46.996929 10.96 47L 21.42 47C 21.687965 47.03791 21.940212 46.863945 22 46.599998ZM 41.34 33.599998C 41.147053 32.653755 40.305519 31.980528 39.34 32L 28.620001 32C 27.654478 31.980528 26.812946 32.653755 26.620001 33.599998L 22.459999 53.599998C 22.338558 54.185307 22.485291 54.79425 22.860001 55.259998C 23.241261 55.729984 23.814823 56.002056 24.42 56L 43.5 56C 44.105175 56.002056 44.678741 55.729984 45.060001 55.259998C 45.434708 54.79425 45.58144 54.185307 45.459999 53.599998ZM 38.599998 51.599998C 38.409798 51.820663 38.131279 51.945263 37.84 51.939999L 30.16 51.939999C 29.868723 51.945263 29.590204 51.820663 29.4 51.600002C 29.204681 51.382481 29.116671 51.089115 29.16 50.799999L 29.879999 45.799999C 29.940924 45.306087 30.362358 44.936256 30.860001 44.939999L 37.139999 44.939999C 37.637642 44.936256 38.059074 45.306087 38.120003 45.799999L 38.84 50.799999C 38.902821 51.108578 38.813526 51.428543 38.599998 51.66Z"/>
      </g>
    </g>
  </g>
  <g id="g-root-netw_1um5gkminl3b9-stroke-fill" data-item-order="-2304" transform="translate(314, 446)">
    <g id="netw_1um5gkminl3b9-fill" stroke="none" fill="#f4f4f4">
      <g>
        <path d="M 33.900002 14C 32.582001 14 31.294001 14.128 30.049999 14.37C 28.945999 16.209999 27.983999 18.732 27.27 21.732L 40.956001 21.732C 40.236 18.782 39.281998 16.299999 38.195999 14.462C 36.784748 14.154163 35.344437 13.999269 33.900002 14ZM 28.256001 10.666C 30.10446 10.222047 31.998978 9.998491 33.900002 10C 42.733604 9.984307 50.853027 14.850421 55.004002 22.647999C 55.06979 22.750637 55.126022 22.859093 55.172001 22.972C 56.905853 26.353374 57.806858 30.100019 57.800003 33.900002C 57.800251 34.459442 57.566177 34.993423 57.154583 35.37233C 56.742992 35.751236 56.191513 35.940434 55.633999 35.893997C 55.57877 35.898232 55.523388 35.90023 55.467999 35.900002L 46.34 35.900002C 46.324158 36.573715 46.297489 37.247139 46.259998 37.919998C 46.199482 39.023098 45.256058 39.868202 44.152973 39.807442C 43.049889 39.746681 42.20499 38.80307 42.265999 37.699997C 42.299999 37.096001 42.324001 36.496002 42.338001 35.900002L 25.959999 35.900002C 26.032 38.052002 26.216 40.122002 26.5 42.068001L 33.510002 42.068001C 34.614571 42.068001 35.510002 42.963432 35.510002 44.068001C 35.510002 45.172569 34.614571 46.068001 33.510002 46.068001L 27.257999 46.068001C 27.427999 46.771999 27.610001 47.448002 27.806 48.098C 28.125219 49.155624 27.526625 50.271778 26.469 50.591C 25.411373 50.910221 24.295219 50.311623 23.976 49.253998C 23.660683 48.203251 23.387135 47.140419 23.156002 46.068001L 18.139999 46.068001C 19.807505 48.221344 21.90456 50.004417 24.298 51.303997C 25.269054 51.831364 25.628674 53.046112 25.101198 54.017105C 24.573725 54.988102 23.358934 55.347584 22.388 54.82C 14.729633 50.651356 9.97341 42.619373 10 33.900002L 10 33.893997C 9.985804 22.862679 17.533764 13.259042 28.256001 10.666ZM 43.529999 16.468C 45.913807 17.784573 48.002186 19.576168 49.666 21.732L 45.060001 21.732C 44.671898 19.944176 44.160679 18.185318 43.530003 16.468ZM 45.779999 25.732L 52.060001 25.732C 52.919998 27.646 53.486 29.719999 53.700001 31.9L 46.316002 31.9C 46.241821 29.836256 46.062923 27.777607 45.780003 25.732ZM 22.459999 42.068001L 15.74 42.068001C 14.863786 40.114071 14.309943 38.031082 14.1 35.900002L 21.959999 35.900002C 22.020069 37.963253 22.186958 40.022011 22.459999 42.068001ZM 21.959999 31.9L 14.1 31.9C 14.309874 29.768906 14.86372 27.685905 15.74 25.732L 22.466 25.732C 22.198 27.712 22.026001 29.782 21.959999 31.9ZM 24.774 16.200001C 22.182245 17.535473 19.915493 19.423977 18.133999 21.732L 23.166 21.732C 23.56517 19.850952 24.102631 18.001928 24.774002 16.200001ZM 42.313999 31.9C 42.236164 29.834932 42.043869 27.775772 41.737999 25.731998L 26.506001 25.732C 26.222 27.672001 26.034 29.74 25.962 31.9L 42.313999 31.9ZM 55.439999 49.16L 53.653999 47.374001L 47.514 53.514C 46.733002 54.294765 45.466999 54.294765 44.686001 53.514L 41.132 49.959999L 34.503998 56.880001C 33.740189 57.678055 32.474052 57.705811 31.676001 56.942001C 30.877949 56.178192 30.850191 54.912052 31.614 54.114002L 39.653999 45.716C 40.02623 45.327198 40.539459 45.104847 41.07769 45.099201C 41.615913 45.093555 42.133698 45.305092 42.514 45.686001L 46.099998 49.271999L 50.826 44.546001L 49.040001 42.759998C 48.611561 42.331028 48.483486 41.686317 48.715427 41.126152C 48.947369 40.56599 49.493717 40.200535 50.100002 40.200001L 56.5 40.200001C 57.32843 40.200001 58 40.871574 58 41.700001L 58 48.099998C 57.99947 48.706284 57.63401 49.252632 57.073849 49.484573C 56.513687 49.716518 55.868977 49.58844 55.440002 49.16Z"/>
      </g>
    </g>
  </g>
  <g id="g-root-2_humtk6inmi2u-stroke-fill" data-item-order="-2304" transform="translate(470, 446)">
    <g id="2_humtk6inmi2u-fill" stroke="none" fill="#f4f4f4">
      <g>
        <path d="M 30.860001 17.799999C 27.74 17.799999 25.200001 21.18 25.200001 25.34C 25.200001 29.5 27.74 32.900002 30.860001 32.900002C 33.98 32.900002 36.540001 29.5 36.540001 25.34C 36.540001 21.18 34 17.799999 30.860001 17.799999ZM 34 36.120003L 27.68 36.120003C 27.432304 36.116814 27.219614 36.295471 27.18 36.540001C 27.104177 37.036488 27.064074 37.537773 27.059999 38.040001C 27.059999 41.5 28.74 44.220001 30.860001 44.220001C 32.98 44.220001 34.68 41.5 34.68 38.040001C 34.675926 37.537773 34.635826 37.036488 34.560001 36.540001C 34.509613 36.276505 34.267059 36.094589 34 36.119999ZM 10 10M 57.419998 54.580002L 46.48 43.639999C 52.714848 36.031464 52.693634 25.074471 46.429371 17.490135C 40.165108 9.905799 29.409447 7.814894 20.76 12.5C 13.444746 16.475601 9.245533 24.467144 10.121217 32.746731C 10.9969 41.026314 16.774944 47.962624 24.76 50.32C 26.657267 50.874222 28.623446 51.157028 30.6 51.16C 34.03075 51.159851 37.406822 50.300365 40.419998 48.66C 41.550533 48.021626 42.627399 47.292568 43.639999 46.48L 54.580002 57.419998C 54.957439 57.794373 55.468395 58.003075 56 58C 56.531605 58.003075 57.042561 57.794373 57.419998 57.419998C 57.798626 57.044468 58.011597 56.533276 58.011597 56C 58.011597 55.466724 57.798626 54.955532 57.419998 54.580002ZM 38.5 45.139999C 30.452888 49.516838 20.381271 46.540138 16.006416 38.491951C 11.631559 30.44376 14.610735 20.372877 22.66 16C 25.084064 14.681694 27.800653 13.99395 30.559999 14C 37.267242 13.995007 43.316799 18.031591 45.886868 24.226902C 48.456936 30.422216 47.041191 37.555714 42.299999 42.299999C 41.175114 43.422882 39.895508 44.379219 38.5 45.139999Z"/>
      </g>
    </g>
  </g>
  <g id="g-root-book_qsrq5iinny87-stroke-fill" data-item-order="-2304" transform="translate(543, 314)">
    <g id="book_qsrq5iinny87-fill" stroke="none" fill="#f4f4f4">
      <g>
        <path d="M 14.5 10L 13 10C 11.343145 10 10 11.343145 10 13L 10 55C 10 56.656857 11.343145 58 13 58L 14.5 58C 14.776142 58 15 57.776142 15 57.5L 15 10.5C 15 10.223858 14.776142 10 14.5 10ZM 58 18C 58 14.686292 55.313709 12 52 12L 50.459999 12C 50.09988 11.996938 49.766975 11.807788 49.579998 11.5C 49.050358 10.574368 48.066448 10.002329 47 10L 17.5 10C 17.223858 10 17 10.223858 17 10.5L 17 57.5C 17 57.776142 17.223858 58 17.5 58L 47 58C 48.066448 57.997673 49.050358 57.425632 49.580002 56.500004C 49.766975 56.192207 50.09988 56.003059 50.459999 55.999996L 52 56C 55.313709 56 58 53.313709 58 50ZM 43.759998 46C 43.759998 46.552284 43.312286 47 42.759998 47L 22.76 47C 22.207714 47 21.76 46.552284 21.76 46C 21.793409 44.613766 22.120617 43.250404 22.720001 42C 23.459999 40.52 25.74 39.700001 28.860001 38.540001L 29.24 38.400002C 29.417259 38.33786 29.547228 38.184952 29.579998 38L 29.58 37.099998C 29.572931 36.97414 29.523603 36.854347 29.440001 36.760002C 28.847628 36.128716 28.457584 35.334694 28.320002 34.480003C 28.33119 34.413803 28.33119 34.346199 28.32 34.279999C 28.130762 34.017838 28.001074 33.717506 27.940001 33.400002C 27.706722 32.770172 27.728247 32.074203 28 31.459999C 28.060577 31.340576 28.060577 31.199423 28 31.08C 27.439182 29.795933 27.483215 28.328138 28.119999 27.08C 28.400263 26.688938 28.812101 26.412012 29.280001 26.299999C 29.396164 26.315134 29.513123 26.278584 29.6 26.200001C 30.711771 25.267303 32.158417 24.833309 33.599998 25C 35.599998 25 37.760002 25.720001 38.120003 27.5C 38.233459 28.740122 38.019684 29.988316 37.5 31.119999C 37.449402 31.255428 37.449402 31.404572 37.5 31.540001C 37.766838 32.10157 37.823601 32.74017 37.66 33.34C 37.599297 33.651493 37.469437 33.945389 37.279999 34.199997C 37.271744 34.273102 37.271744 34.346901 37.279999 34.419998C 37.101612 35.294914 36.654053 36.092125 36 36.700001C 35.916397 36.794346 35.867069 36.914139 35.860001 37.040001L 35.860001 38C 35.863251 38.214886 35.998363 38.405632 36.199997 38.479996L 36.580002 38.620003C 39.700001 39.779999 41.98 40.620003 42.720001 42.080002C 43.330776 43.301914 43.684719 44.636013 43.760002 46ZM 54 50C 54 51.104568 53.104568 52 52 52L 50.5 52C 50.223858 52 50 51.776142 50 51.5L 50 46.5C 50 46.223858 50.223858 46 50.5 46L 53.5 46C 53.776142 46 54 46.223858 54 46.5ZM 54 41.5C 54 41.776142 53.776142 42 53.5 42L 50.5 42C 50.223858 42 50 41.776142 50 41.5L 50 36.5C 50 36.223858 50.223858 36 50.5 36L 53.5 36C 53.776142 36 54 36.223858 54 36.5ZM 54 31.5C 54 31.776142 53.776142 32 53.5 32L 50.5 32C 50.223858 32 50 31.776142 50 31.5L 50 26.5C 50 26.223858 50.223858 26 50.5 26L 53.5 26C 53.776142 26 54 26.223858 54 26.5ZM 54 21.5C 54 21.776142 53.776142 22 53.5 22L 50.5 22C 50.223858 22 50 21.776142 50 21.5L 50 16.5C 50 16.223858 50.223858 16 50.5 16L 52 16C 53.104568 16 54 16.895432 54 18Z"/>
      </g>
    </g>
  </g>
  <g id="g-root-lock_zrj3tyinpb7s-stroke-fill" data-item-order="-2304" transform="translate(470, 182)">
    <g id="lock_zrj3tyinpb7s-fill" stroke="none" fill="#f4f4f4">
      <g>
        <path d="M 48 27C 49.104568 27 50 26.10457 50 25C 50 23.895432 49.104568 23 48 23L 34 23C 32.895432 23 32 23.895432 32 25C 32 26.10457 32.895432 27 34 27ZM 35 32C 33.895432 32 33 32.895432 33 34C 33 35.104568 33.895432 36 35 36L 43 36C 44.104568 36 45 35.104568 45 34C 45 32.895432 44.104568 32 43 32ZM 56.82 16L 52 11.18C 51.2533 10.428824 50.239155 10.004465 49.18 10L 26 10C 23.790861 10 22 11.790861 22 14L 22 29.360001C 22.006283 29.580076 22.150484 29.772345 22.360001 29.839998C 23.386372 30.120323 24.354761 30.580816 25.219999 31.199999C 25.371136 31.302263 25.565981 31.314068 25.728357 31.230797C 25.890734 31.147528 25.99485 30.98241 26 30.799999L 26 15C 26 14.447716 26.447716 14 27 14L 48.759998 14C 49.025208 13.996767 49.279438 14.105723 49.459999 14.3L 53.700001 18.540001C 53.894276 18.720562 54.003231 18.974792 54 19.24L 54 46C 54 46.552284 53.552284 47 53 47L 33.5 47C 33.223858 47 33 47.223858 33 47.5L 33 50.5C 33 50.776142 33.223858 51 33.5 51L 54 51C 56.209141 51 58 49.209141 58 47L 58 18.82C 57.995533 17.760845 57.571175 16.7467 56.82 16ZM 27.219999 41.02C 27.095318 41.009575 26.999563 40.905113 26.999998 40.779999L 27 38.5C 27 34.63401 23.865993 31.500002 20 31.500002C 16.134007 31.500002 13 34.63401 13 38.5L 13 40.760002C 13.005531 40.8237 12.985415 40.886974 12.944113 40.935783C 12.90281 40.984596 12.843738 41.014908 12.78 41.019997C 11.217295 41.134895 10.006228 42.43309 10 44L 10 55C 10 56.656857 11.343145 58 13 58L 27 58C 28.656855 58 30 56.656857 30 55L 30 44C 29.993773 42.43309 28.782705 41.134895 27.220001 41.02ZM 20 52.5C 18.895432 52.5 18 51.604568 18 50.5C 18 49.395432 18.895432 48.5 20 48.5C 21.104568 48.5 22 49.395432 22 50.5C 22 51.604568 21.104568 52.5 20 52.5ZM 23 40.760002C 23.000435 40.885113 22.90468 40.989571 22.779999 41L 17.219999 41C 17.099455 40.981499 17.007969 40.881695 17 40.759998L 17 38.5C 17 36.843147 18.343147 35.5 20 35.5C 21.656855 35.5 23 36.843147 23 38.5Z"/>
      </g>
    </g>
  </g>
  <g id="g-root-tx_comprehe_1um5gkminicjm-stroke-fill" data-item-order="0" transform="translate(153, 50)">
    <g id="tx_comprehe_1um5gkminicjm-fill" stroke="none" fill="#f4f4f4">
      <g>
        <text style="font: bold 20px Roboto, sans-serif; white-space: pre;" font-weight="bold" font-size="20px" font-family="Roboto, sans-serif">
          <tspan x="15.36" y="34" dominant-baseline="ideographic">Comprehensive Understanding of Albania's UFO Phenomena</tspan>
        </text>
      </g>
    </g>
  </g>
  <g id="g-root-tx_establis_1hbbig6in71fm-stroke-fill" data-item-order="0" transform="translate(128, 158)">
    <g id="tx_establis_1hbbig6in71fm-fill" stroke="none" fill="#f2ffd7">
      <g>
        <text style="font: 15px Roboto, sans-serif; white-space: pre;" font-size="15px" font-family="Roboto, sans-serif">
          <tspan x="39.14" y="28" dominant-baseline="ideographic">Establishment of </tspan>
          <tspan x="17.81" y="46" dominant-baseline="ideographic">consistent reporting </tspan>
          <tspan x="22.27" y="64" dominant-baseline="ideographic">procedures for UFO </tspan>
          <tspan x="90.92" y="82" dominant-baseline="ideographic">sightings</tspan>
        </text>
      </g>
    </g>
  </g>
  <g id="g-root-tx_collabor_13zv02uin730j-stroke-fill" data-item-order="0" transform="translate(26, 326)">
    <g id="tx_collabor_13zv02uin730j-fill" stroke="none" fill="#ffe8f6">
      <g>
        <text style="font: 15px Roboto, sans-serif; white-space: pre;" font-size="15px" font-family="Roboto, sans-serif">
          <tspan x="17.67" y="31" dominant-baseline="ideographic">Collaboration of diverse </tspan>
          <tspan x="51.56" y="49" dominant-baseline="ideographic">experts for holistic </tspan>
          <tspan x="121.52" y="67" dominant-baseline="ideographic">analysis</tspan>
        </text>
      </g>
    </g>
  </g>
  <g id="g-root-tx_comparis_htdyjqin728c-stroke-fill" data-item-order="0" transform="translate(104, 494)">
    <g id="tx_comparis_htdyjqin728c-fill" stroke="none" fill="#e5f8ff">
      <g>
        <text style="font: 15px Roboto, sans-serif; white-space: pre;" font-size="15px" font-family="Roboto, sans-serif">
          <tspan x="15.03" y="31" dominant-baseline="ideographic">Comparison of Albanian </tspan>
          <tspan x="64.16" y="49" dominant-baseline="ideographic">UFO reports with </tspan>
          <tspan x="31" y="67" dominant-baseline="ideographic">neighboring countries</tspan>
        </text>
      </g>
    </g>
  </g>
  <g id="g-root-tx_scientif_2qf52in71fp-stroke-fill" data-item-order="0" transform="translate(560, 494)">
    <g id="tx_scientif_2qf52in71fp-fill" stroke="none" fill="#dffff0">
      <g>
        <text style="font: 15px Roboto, sans-serif; white-space: pre;" font-size="15px" font-family="Roboto, sans-serif">
          <tspan x="12" y="31" dominant-baseline="ideographic">Scientific analysis of </tspan>
          <tspan x="12" y="49" dominant-baseline="ideographic">reported physical UFO </tspan>
          <tspan x="12" y="67" dominant-baseline="ideographic">evidence</tspan>
        </text>
      </g>
    </g>
  </g>
  <g id="g-root-tx_collecti_1cwqyhyin73m6-stroke-fill" data-item-order="0" transform="translate(638, 326)">
    <g id="tx_collecti_1cwqyhyin73m6-fill" stroke="none" fill="#fffbd5">
      <g>
        <text style="font: 15px Roboto, sans-serif; white-space: pre;" font-size="15px" font-family="Roboto, sans-serif">
          <tspan x="12" y="31" dominant-baseline="ideographic">Collection of first-</tspan>
          <tspan x="12" y="49" dominant-baseline="ideographic">person accounts from </tspan>
          <tspan x="12" y="67" dominant-baseline="ideographic">UFO witnesses</tspan>
        </text>
      </g>
    </g>
  </g>
  <g id="g-root-tx_examinat_v63f3ain72tj-stroke-fill" data-item-order="0" transform="translate(560, 158)">
    <g id="tx_examinat_v63f3ain72tj-fill" stroke="none" fill="#fff0e2">
      <g>
        <text style="font: 15px Roboto, sans-serif; white-space: pre;" font-size="15px" font-family="Roboto, sans-serif">
          <tspan x="12" y="28" dominant-baseline="ideographic">Examination of </tspan>
          <tspan x="12" y="46" dominant-baseline="ideographic">historical State Security </tspan>
          <tspan x="12" y="64" dominant-baseline="ideographic">archives for UFO </tspan>
          <tspan x="12" y="82" dominant-baseline="ideographic">investigations</tspan>
        </text>
      </g>
    </g>
  </g>
  <g id="g-root-tx_witnessd_dffvomin720w-stroke-fill" data-item-order="0" transform="translate(638, 266)">
    <g id="tx_witnessd_dffvomin720w-fill" stroke="none" fill="#ffe711">
      <g>
        <text style="font: bold 20px Roboto, sans-serif; white-space: pre;" font-weight="bold" font-size="20px" font-family="Roboto, sans-serif">
          <tspan x="12" y="34" dominant-baseline="ideographic">Witness </tspan>
          <tspan x="12" y="58" dominant-baseline="ideographic">Documentation</tspan>
        </text>
      </g>
    </g>
  </g>
  <g id="g-root-tx_comparat_1qa2w4min711l-stroke-fill" data-item-order="0" transform="translate(152, 434)">
    <g id="tx_comparat_1qa2w4min711l-fill" stroke="none" fill="#1ac3fb">
      <g>
        <text style="font: bold 20px Roboto, sans-serif; white-space: pre;" font-weight="bold" font-size="20px" font-family="Roboto, sans-serif">
          <tspan x="13.78" y="34" dominant-baseline="ideographic">Comparative </tspan>
          <tspan x="51.75" y="58" dominant-baseline="ideographic">Analysis</tspan>
        </text>
      </g>
    </g>
  </g>
  <g id="g-root-tx_interdis_1cymdrain72mi-stroke-fill" data-item-order="0" transform="translate(38, 266)">
    <g id="tx_interdis_1cymdrain72mi-fill" stroke="none" fill="#f366bb">
      <g>
        <text style="font: bold 20px Roboto, sans-serif; white-space: pre;" font-weight="bold" font-size="20px" font-family="Roboto, sans-serif">
          <tspan x="18.38" y="34" dominant-baseline="ideographic">Interdisciplinary </tspan>
          <tspan x="103.41" y="58" dominant-baseline="ideographic">Teams</tspan>
        </text>
      </g>
    </g>
  </g>
  <g id="g-root-tx_standard_mcbu3qin72mj-stroke-fill" data-item-order="0" transform="translate(140, 98)">
    <g id="tx_standard_mcbu3qin72mj-fill" stroke="none" fill="#a6da37">
      <g>
        <text style="font: bold 20px Roboto, sans-serif; white-space: pre;" font-weight="bold" font-size="20px" font-family="Roboto, sans-serif">
          <tspan x="21.27" y="34" dominant-baseline="ideographic">Standardized </tspan>
          <tspan x="53.72" y="58" dominant-baseline="ideographic">Protocols</tspan>
        </text>
      </g>
    </g>
  </g>
  <g id="g-root-tx_physical_4loap2in71tw-stroke-fill" data-item-order="0" transform="translate(560, 434)">
    <g id="tx_physical_4loap2in71tw-fill" stroke="none" fill="#43dd93">
      <g>
        <text style="font: bold 20px Roboto, sans-serif; white-space: pre;" font-weight="bold" font-size="20px" font-family="Roboto, sans-serif">
          <tspan x="12" y="34" dominant-baseline="ideographic">Physical Evidence </tspan>
          <tspan x="12" y="58" dominant-baseline="ideographic">Analysis</tspan>
        </text>
      </g>
    </g>
  </g>
  <g id="g-root-tx_archival_1qbbuauin737p-stroke-fill" data-item-order="0" transform="translate(560, 122)">
    <g id="tx_archival_1qbbuauin737p-fill" stroke="none" fill="#f79438">
      <g>
        <text style="font: bold 20px Roboto, sans-serif; white-space: pre;" font-weight="bold" font-size="20px" font-family="Roboto, sans-serif">
          <tspan x="12" y="34" dominant-baseline="ideographic">Archival Research</tspan>
        </text>
      </g>
    </g>
  </g>
</svg>
