<?xml version='1.0' encoding='UTF-8'?>
<svg xmlns="http://www.w3.org/2000/svg" xmlns:xlink="http://www.w3.org/1999/xlink" width="504" height="1344" viewBox="0 0 504 1344" style="fill:none;stroke:none;fill-rule:evenodd;clip-rule:evenodd;stroke-linecap:round;stroke-linejoin:round;stroke-miterlimit:1.5;" version="1.1">
  <style class="text-font-style fontImports" data-font-family="Roboto">@import url('https://fonts.googleapis.com/css2?family=Roboto:wght@400;700&amp;display=block');</style>
  <rect x="0" y="0" width="504" height="1344" fill="#2c2c2c" stroke="none" id="programmatic_background"/>
  <g id="g-root-tf_7q4omlpi39k-stroke-fill" data-item-order="-619632" transform="translate(2, 2)"/>
  <g id="g-root-di_1q7kwmulpcgsm-stroke-fill" data-item-order="-20736" transform="translate(133.99996948242188, 798)">
    <g id="di_1q7kwmulpcgsm-fill" stroke="none" fill="none">
      <g>
        <path d="M 10 58L 118 106L 226 58L 118 10Z"/>
      </g>
    </g>
    <g id="di_1q7kwmulpcgsm-stroke" fill="none" stroke-linecap="round" stroke-linejoin="round" stroke-miterlimit="4" stroke="#f79438" stroke-width="2">
      <g>
        <path d="M 10 58L 118 106L 226 58L 118 10Z"/>
      </g>
    </g>
  </g>
  <g id="g-root-ro_1cwqvcmlpb1tt-stroke-fill" data-item-order="-15552" transform="translate(134, 542)">
    <g id="ro_1cwqvcmlpb1tt-fill" stroke="none" fill="none">
      <g>
        <path d="M 22 10L 214 10C 214 10 226 10 226 22L 226 70C 226 70 226 82 214 82L 22 82C 22 82 10 82 10 70L 10 22C 10 22 10 10 22 10"/>
      </g>
    </g>
    <g id="ro_1cwqvcmlpb1tt-stroke" fill="none" stroke-linecap="round" stroke-linejoin="round" stroke-miterlimit="4" stroke="#1ac3fb" stroke-width="2">
      <g>
        <path d="M 22 10L 214 10C 214 10 226 10 226 22L 226 70C 226 70 226 82 214 82L 22 82C 22 82 10 82 10 70L 10 22C 10 22 10 10 22 10"/>
      </g>
    </g>
  </g>
  <g id="g-root-ro_18hjubalp9lam-stroke-fill" data-item-order="-13824" transform="translate(146, 414)">
    <g id="ro_18hjubalp9lam-fill" stroke="none" fill="none">
      <g>
        <path d="M 22 10L 190 10C 190 10 202 10 202 22L 202 70C 202 70 202 82 190 82L 22 82C 22 82 10 82 10 70L 10 22C 10 22 10 10 22 10"/>
      </g>
    </g>
    <g id="ro_18hjubalp9lam-stroke" fill="none" stroke-linecap="round" stroke-linejoin="round" stroke-miterlimit="4" stroke="#1ac3fb" stroke-width="2">
      <g>
        <path d="M 22 10L 190 10C 190 10 202 10 202 22L 202 70C 202 70 202 82 190 82L 22 82C 22 82 10 82 10 70L 10 22C 10 22 10 10 22 10"/>
      </g>
    </g>
  </g>
  <g id="g-root-ro_4j6b7alpduyp-stroke-fill" data-item-order="-13824" transform="translate(40, 950)">
    <g id="ro_4j6b7alpduyp-fill" stroke="none" fill="none">
      <g>
        <path d="M 22 10L 190 10C 190 10 202 10 202 22L 202 70C 202 70 202 82 190 82L 22 82C 22 82 10 82 10 70L 10 22C 10 22 10 10 22 10"/>
      </g>
    </g>
    <g id="ro_4j6b7alpduyp-stroke" fill="none" stroke-linecap="round" stroke-linejoin="round" stroke-miterlimit="4" stroke="#1ac3fb" stroke-width="2">
      <g>
        <path d="M 22 10L 190 10C 190 10 202 10 202 22L 202 70C 202 70 202 82 190 82L 22 82C 22 82 10 82 10 70L 10 22C 10 22 10 10 22 10"/>
      </g>
    </g>
  </g>
  <g id="g-root-ro_8yztbqlpf7kc-stroke-fill" data-item-order="-12960" transform="translate(252, 950)">
    <g id="ro_8yztbqlpf7kc-fill" stroke="none" fill="none">
      <g>
        <path d="M 22 10L 178 10C 178 10 190 10 190 22L 190 70C 190 70 190 82 178 82L 22 82C 22 82 10 82 10 70L 10 22C 10 22 10 10 22 10"/>
      </g>
    </g>
    <g id="ro_8yztbqlpf7kc-stroke" fill="none" stroke-linecap="round" stroke-linejoin="round" stroke-miterlimit="4" stroke="#1ac3fb" stroke-width="2">
      <g>
        <path d="M 22 10L 178 10C 178 10 190 10 190 22L 190 70C 190 70 190 82 178 82L 22 82C 22 82 10 82 10 70L 10 22C 10 22 10 10 22 10"/>
      </g>
    </g>
  </g>
  <g id="g-root-ro_4lr92lp6tq8-stroke-fill" data-item-order="-11232" transform="translate(164, 158)">
    <g id="ro_4lr92lp6tq8-fill" stroke="none" fill="none">
      <g>
        <path d="M 22 10L 154 10C 154 10 166 10 166 22L 166 70C 166 70 166 82 154 82L 22 82C 22 82 10 82 10 70L 10 22C 10 22 10 10 22 10"/>
      </g>
    </g>
    <g id="ro_4lr92lp6tq8-stroke" fill="none" stroke-linecap="round" stroke-linejoin="round" stroke-miterlimit="4" stroke="#f4f4f4" stroke-width="2">
      <g>
        <path d="M 22 10L 154 10C 154 10 166 10 166 22L 166 70C 166 70 166 82 154 82L 22 82C 22 82 10 82 10 70L 10 22C 10 22 10 10 22 10"/>
      </g>
    </g>
  </g>
  <g id="g-root-ro_dffsjalp88oz-stroke-fill" data-item-order="-11232" transform="translate(164, 286)">
    <g id="ro_dffsjalp88oz-fill" stroke="none" fill="none">
      <g>
        <path d="M 22 10L 154 10C 154 10 166 10 166 22L 166 70C 166 70 166 82 154 82L 22 82C 22 82 10 82 10 70L 10 22C 10 22 10 10 22 10"/>
      </g>
    </g>
    <g id="ro_dffsjalp88oz-stroke" fill="none" stroke-linecap="round" stroke-linejoin="round" stroke-miterlimit="4" stroke="#1ac3fb" stroke-width="2">
      <g>
        <path d="M 22 10L 154 10C 154 10 166 10 166 22L 166 70C 166 70 166 82 154 82L 22 82C 22 82 10 82 10 70L 10 22C 10 22 10 10 22 10"/>
      </g>
    </g>
  </g>
  <g id="g-root-ro_8xqv5ilpcemk-stroke-fill" data-item-order="-11232" transform="translate(164, 670)">
    <g id="ro_8xqv5ilpcemk-fill" stroke="none" fill="none">
      <g>
        <path d="M 22 10L 154 10C 154 10 166 10 166 22L 166 70C 166 70 166 82 154 82L 22 82C 22 82 10 82 10 70L 10 22C 10 22 10 10 22 10"/>
      </g>
    </g>
    <g id="ro_8xqv5ilpcemk-stroke" fill="none" stroke-linecap="round" stroke-linejoin="round" stroke-miterlimit="4" stroke="#1ac3fb" stroke-width="2">
      <g>
        <path d="M 22 10L 154 10C 154 10 166 10 166 22L 166 70C 166 70 166 82 154 82L 22 82C 22 82 10 82 10 70L 10 22C 10 22 10 10 22 10"/>
      </g>
    </g>
  </g>
  <g id="g-root-ro_zmjb5ilpi0i2-stroke-fill" data-item-order="-11232" transform="translate(164, 1206)">
    <g id="ro_zmjb5ilpi0i2-fill" stroke="none" fill="none">
      <g>
        <path d="M 22 10L 154 10C 154 10 166 10 166 22L 166 70C 166 70 166 82 154 82L 22 82C 22 82 10 82 10 70L 10 22C 10 22 10 10 22 10"/>
      </g>
    </g>
    <g id="ro_zmjb5ilpi0i2-stroke" fill="none" stroke-linecap="round" stroke-linejoin="round" stroke-miterlimit="4" stroke="#1ac3fb" stroke-width="2">
      <g>
        <path d="M 22 10L 154 10C 154 10 166 10 166 22L 166 70C 166 70 166 82 154 82L 22 82C 22 82 10 82 10 70L 10 22C 10 22 10 10 22 10"/>
      </g>
    </g>
  </g>
  <g id="g-root-ro_m9tulylpgmj3-stroke-fill" data-item-order="-10368" transform="translate(170, 1078)">
    <g id="ro_m9tulylpgmj3-fill" stroke="none" fill="none">
      <g>
        <path d="M 22 10L 142 10C 142 10 154 10 154 22L 154 70C 154 70 154 82 142 82L 22 82C 22 82 10 82 10 70L 10 22C 10 22 10 10 22 10"/>
      </g>
    </g>
    <g id="ro_m9tulylpgmj3-stroke" fill="none" stroke-linecap="round" stroke-linejoin="round" stroke-miterlimit="4" stroke="#1ac3fb" stroke-width="2">
      <g>
        <path d="M 22 10L 142 10C 142 10 154 10 154 22L 154 70C 154 70 154 82 142 82L 22 82C 22 82 10 82 10 70L 10 22C 10 22 10 10 22 10"/>
      </g>
    </g>
  </g>
  <g id="g-root-tx_ufopheno_hz056elpi0wf-stroke-fill" data-item-order="0" transform="translate(26, 50)">
    <g id="tx_ufopheno_hz056elpi0wf-fill" stroke="none" fill="#f4f4f4">
      <g>
        <text style="font: 25px Roboto, sans-serif; white-space: pre;" font-size="25px" font-family="Roboto, sans-serif">
          <tspan x="15.39" y="40" dominant-baseline="ideographic">UFO Phenomena in Angola: Analysis </tspan>
          <tspan x="161.56" y="70" dominant-baseline="ideographic">Flowchart</tspan>
        </text>
      </g>
    </g>
    <defs>
      <pattern id="crawlingPattern-00000024" x="0" y="0" width="12" height="12" patternUnits="userSpaceOnUse" fill="#00000024">
        <use href="#crawlingSymbol"/>
      </pattern>
      <symbol id="crawlingSymbol">
        <g>
          <path d="M -12.5 12.5 l 13 -13 l 6 0 l -13 13 Z M -0.5 12.5 l 13 -13 l 6 0 l -13 13 Z M 11.5 12.5 l 13 -13 l 6 0 l -13 13 Z"/>
        </g>
      </symbol>
      <pattern id="crawlingPattern-00a3d9d9" x="0" y="0" width="12" height="12" patternUnits="userSpaceOnUse" fill="#00a3d9d9">
        <use href="#crawlingSymbol"/>
      </pattern>
      <pattern id="crawlingPattern-f17400d3" x="0" y="0" width="12" height="12" patternUnits="userSpaceOnUse" fill="#f17400d3">
        <use href="#crawlingSymbol"/>
      </pattern>
      <pattern id="crawlingPattern-0000001b" x="0" y="0" width="12" height="12" patternUnits="userSpaceOnUse" fill="#0000001b">
        <use href="#crawlingSymbol"/>
      </pattern>
    </defs>
  </g>
  <g id="g-root-cu_1lw4q46lpi1or-stroke-fill" data-item-order="2" transform="translate(242, 230)">
    <g id="cu_1lw4q46lpi1or-stroke" fill="none" stroke-linecap="round" stroke-linejoin="round" stroke-miterlimit="4" stroke="#f4f4f4" stroke-width="2">
      <g>
        <path d="M 10 10L 10 38L 10 64"/>
        <path d="M 3.5 58L 10 64.5L 16.5 58" stroke-dasharray="none"/>
      </g>
    </g>
  </g>
  <g id="g-root-cu_1hgb7zqlpi2h2-stroke-fill" data-item-order="2" transform="translate(242, 358)">
    <g id="cu_1hgb7zqlpi2h2-stroke" fill="none" stroke-linecap="round" stroke-linejoin="round" stroke-miterlimit="4" stroke="#f4f4f4" stroke-width="2">
      <g>
        <path d="M 10 10L 10 38L 10 64"/>
        <path d="M 3.5 58L 10 64.5L 16.5 58" stroke-dasharray="none"/>
      </g>
    </g>
  </g>
  <g id="g-root-cu_1d0hpvalpi39d-stroke-fill" data-item-order="2" transform="translate(242, 486)">
    <g id="cu_1d0hpvalpi39d-stroke" fill="none" stroke-linecap="round" stroke-linejoin="round" stroke-miterlimit="4" stroke="#f4f4f4" stroke-width="2">
      <g>
        <path d="M 10 10L 10 38L 10 64"/>
        <path d="M 3.5 58L 10 64.5L 16.5 58" stroke-dasharray="none"/>
      </g>
    </g>
  </g>
  <g id="g-root-cu_145h6pilpi0wc-stroke-fill" data-item-order="2" transform="translate(242, 614)">
    <g id="cu_145h6pilpi0wc-stroke" fill="none" stroke-linecap="round" stroke-linejoin="round" stroke-miterlimit="4" stroke="#f4f4f4" stroke-width="2">
      <g>
        <path d="M 10 10L 10 38L 10 64"/>
        <path d="M 3.5 58L 10 64.5L 16.5 58" stroke-dasharray="none"/>
      </g>
    </g>
  </g>
  <g id="g-root-cu_145h6pilpi0wf-stroke-fill" data-item-order="2" transform="translate(242, 742)">
    <g id="cu_145h6pilpi0wf-stroke" fill="none" stroke-linecap="round" stroke-linejoin="round" stroke-miterlimit="4" stroke="#f4f4f4" stroke-width="2">
      <g>
        <path d="M 10 10L 10 38L 10 64"/>
        <path d="M 3.5 58L 10 64.5L 16.5 58" stroke-dasharray="none"/>
      </g>
    </g>
  </g>
  <g id="g-root-cu_zpnol2lpi1oq-stroke-fill" data-item-order="2" transform="translate(136, 894)">
    <g id="cu_zpnol2lpi1oq-stroke" fill="none" stroke-linecap="round" stroke-linejoin="round" stroke-miterlimit="4" stroke="#f4f4f4" stroke-width="2">
      <g>
        <path d="M 116 10L 116 24L 116 38L 63 38L 10 38L 10 52L 10 64"/>
        <path d="M 3.5 58L 10 64.5L 16.5 58" stroke-dasharray="none"/>
      </g>
    </g>
  </g>
  <g id="g-root-cu_zpnol2lpi1ot-stroke-fill" data-item-order="2" transform="translate(242, 894)">
    <g id="cu_zpnol2lpi1ot-stroke" fill="none" stroke-linecap="round" stroke-linejoin="round" stroke-miterlimit="4" stroke="#f4f4f4" stroke-width="2">
      <g>
        <path d="M 10 10L 10 24L 10 38L 60 38L 110 38L 110 52L 110 64"/>
        <path d="M 103.5 58L 110 64.5L 116.5 58" stroke-dasharray="none"/>
      </g>
    </g>
  </g>
  <g id="g-root-cu_v9u6gmlpi2h3-stroke-fill" data-item-order="2" transform="translate(136, 1022)">
    <g id="cu_v9u6gmlpi2h3-stroke" fill="none" stroke-linecap="round" stroke-linejoin="round" stroke-miterlimit="4" stroke="#f4f4f4" stroke-width="2">
      <g>
        <path d="M 10 10L 10 24L 10 38L 63 38L 116 38L 116 52L 116 64"/>
        <path d="M 109.5 58L 116 64.5L 122.5 58" stroke-dasharray="none"/>
      </g>
    </g>
  </g>
  <g id="g-root-cu_v9u6gmlpi2h6-stroke-fill" data-item-order="2" transform="translate(242, 1022)">
    <g id="cu_v9u6gmlpi2h6-stroke" fill="none" stroke-linecap="round" stroke-linejoin="round" stroke-miterlimit="4" stroke="#f4f4f4" stroke-width="2">
      <g>
        <path d="M 110 10L 110 24L 110 38L 60 38L 10 38L 10 52L 10 64"/>
        <path d="M 3.5 58L 10 64.5L 16.5 58" stroke-dasharray="none"/>
      </g>
    </g>
  </g>
  <g id="g-root-cu_qu0oc6lpi39g-stroke-fill" data-item-order="2" transform="translate(242, 1150)">
    <g id="cu_qu0oc6lpi39g-stroke" fill="none" stroke-linecap="round" stroke-linejoin="round" stroke-miterlimit="4" stroke="#f4f4f4" stroke-width="2">
      <g>
        <path d="M 10 10L 10 38L 10 64"/>
        <path d="M 3.5 58L 10 64.5L 16.5 58" stroke-dasharray="none"/>
      </g>
    </g>
  </g>
  <g id="g-root-tx_historic_hv9anqlp6uiu-stroke-fill" data-item-order="1000000000" transform="translate(212, 170)">
    <g id="tx_historic_hv9anqlp6uiu-fill" stroke="none" fill="#b7b7b7">
      <g>
        <text style="font: 20px Roboto, sans-serif; white-space: pre;" font-size="20px" font-family="Roboto, sans-serif">
          <tspan x="12" y="34" dominant-baseline="ideographic">Historical </tspan>
          <tspan x="12" y="58" dominant-baseline="ideographic">Context</tspan>
        </text>
      </g>
    </g>
  </g>
  <g id="g-root-2_908rhylp6s5r-stroke-fill" data-item-order="1000000000" transform="translate(176, 179)">
    <g id="2_908rhylp6s5r-stroke" fill="none" stroke-linecap="round" stroke-linejoin="round" stroke-miterlimit="4" stroke="#b7b7b7" stroke-width="2">
      <g>
        <path d="M 15.8525 13.23875C 15.852319 11.795344 14.682156 10.625329 13.23875 10.625329C 11.795344 10.625329 10.625182 11.795344 10.625 13.23875L 10.625 17.98875M 36.76125 34.147499C 38.204914 34.14732 39.375328 35.317589 39.375328 36.76125C 39.375328 38.204914 38.204914 39.375183 36.76125 39.375M 13.23875 10.625L 34.147499 10.625C 35.591034 10.625 36.76125 11.795216 36.76125 13.23875L 36.76125 16.50625L 34.80125 19.125L 36.76125 21.08625L 36.76125 34.147499L 19.700001 34.147499C 20.843489 34.720539 21.443455 36.004139 21.149658 37.248978C 20.855864 38.493813 19.745287 39.373707 18.466249 39.375M 15.8525 13.23875L 15.8525 24.346251L 17.8125 26.959999L 15.8525 29.57375L 15.8525 36.76125C 15.8525 38.204784 17.022717 39.375 18.466249 39.375L 36.76125 39.375M 27.61375 15.8525L 31.533749 15.8525M 21.7325 15.8525L 23.69375 15.8525M 21.7325 20.26375L 31.533749 20.26375M 21.7325 24.598749L 31.533749 24.598749M 21.7325 28.932499L 31.533749 28.932499"/>
      </g>
    </g>
  </g>
  <g id="g-root-tx_notables_v63bxylp89hl-stroke-fill" data-item-order="1000000000" transform="translate(212, 298)">
    <g id="tx_notables_v63bxylp89hl-fill" stroke="none" fill="#1ac3fb">
      <g>
        <text style="font: 20px Roboto, sans-serif; white-space: pre;" font-size="20px" font-family="Roboto, sans-serif">
          <tspan x="12" y="34" dominant-baseline="ideographic">Notable </tspan>
          <tspan x="12" y="58" dominant-baseline="ideographic">Sightings</tspan>
        </text>
      </g>
    </g>
  </g>
  <g id="g-root-road_hv9anqlp87wq-stroke-fill" data-item-order="1000000000" transform="translate(176, 307)">
    <g id="road_hv9anqlp87wq-stroke" fill="none" stroke-linecap="round" stroke-linejoin="round" stroke-miterlimit="4" stroke="#1ac3fb" stroke-width="2">
      <g>
        <path d="M 30 20C 30 22.761423 27.761423 25 25 25C 22.238577 25 20 22.761423 20 20C 20 17.238577 22.238577 15 25 15C 27.761423 15 30 17.238577 30 20ZM 20.0375 19.375L 11.25 19.375M 29.9625 19.375L 38.75 19.375M 25 15L 25 10.625M 12.5 22.5C 12.5 23.880713 13.619288 25 15 25C 16.380713 25 17.5 23.880713 17.5 22.5C 17.5 21.119287 16.380713 20 15 20C 13.619288 20 12.5 21.119287 12.5 22.5M 32.5 22.5C 32.5 23.880713 33.619286 25 35 25C 36.380714 25 37.5 23.880713 37.5 22.5C 37.5 21.119287 36.380714 20 35 20C 33.619286 20 32.5 21.119287 32.5 22.5M 20.362499 18.125L 29.637501 18.125M 26.4125 18.125C 26.878284 18.530663 27.143194 19.119858 27.137501 19.737501C 27.137848 20.918255 26.180756 21.875631 25 21.875631C 23.819244 21.875631 22.862152 20.918255 22.862499 19.737499C 22.85681 19.119858 23.121717 18.530663 23.587502 18.125M 35.612499 29.075001L 38.75 39.375M 25 34.375L 25 39.375M 25 28.75L 25 30.625M 14.3875 29.075001L 11.25 39.375"/>
      </g>
    </g>
  </g>
  <g id="g-root-tx_official_1uo0vuelp9m2s-stroke-fill" data-item-order="1000000000" transform="translate(194, 426)">
    <g id="tx_official_1uo0vuelp9m2s-fill" stroke="none" fill="#1ac3fb">
      <g>
        <text style="font: 20px Roboto, sans-serif; white-space: pre;" font-size="20px" font-family="Roboto, sans-serif">
          <tspan x="12" y="34" dominant-baseline="ideographic">Official </tspan>
          <tspan x="12" y="58" dominant-baseline="ideographic">Investigations</tspan>
        </text>
      </g>
    </g>
  </g>
  <g id="g-root-male_1hckdh2lp9nnp-stroke-fill" data-item-order="1000000000" transform="translate(158, 435)">
    <g id="male_1hckdh2lp9nnp-stroke" fill="none" stroke-linecap="round" stroke-linejoin="round" stroke-miterlimit="4" stroke="#1ac3fb" stroke-width="2">
      <g>
        <path d="M 33.8125 18.311762C 33.8125 18.311762 31.187374 20.811764 27.312376 20.811764C 23.312376 20.811764 20.81245 18.311762 20.81245 18.311762C 20.81245 18.311762 23.437374 15.811762 27.312376 15.811762C 31.187374 15.811762 33.8125 18.311762 33.8125 18.311762ZM 27.126749 26.771124C 23.660124 26.771124 20.81245 23.9235 20.81245 20.333012L 20.81245 18.311888C 20.81245 14.186888 23.812374 10.93689 27.312376 10.93689C 30.937376 10.93689 33.8125 14.186888 33.8125 18.311888L 33.812374 20.333012C 33.812374 23.9235 30.964748 26.771124 27.498125 26.771124M 27.3125 10.93689L 27.3125 15.811888M 10 10M 25.1875 29.437874L 27.6875 31.687874L 30.1875 29.437874L 36.4375 29.437874L 34.5625 32.312874C 36.8125 33.937874 38.4375 36.312626 39.0625 39.062622M 16.562574 37.562874C 19.669174 37.562874 22.187574 35.044502 22.187574 31.937876C 22.187574 28.831249 19.669174 26.312874 16.562574 26.312874C 13.455975 26.312874 10.937576 28.831249 10.937576 31.937876C 10.937576 35.044502 13.455975 37.562874 16.562574 37.562874ZM 10 10M 23.687626 39.062752L 20.600964 35.852627M 27.312376 37.457874C 28.000626 37.457874 28.558374 36.900002 28.558374 36.211876C 28.558374 35.523624 28.000626 34.965874 27.312376 34.965874C 26.62425 34.965874 26.066376 35.523624 26.066376 36.211876C 26.066376 36.900002 26.62425 37.457874 27.312376 37.457874Z"/>
      </g>
    </g>
  </g>
  <g id="g-root-tx_document_1uneeralpb2mf-stroke-fill" data-item-order="1000000000" transform="translate(182, 554)">
    <g id="tx_document_1uneeralpb2mf-fill" stroke="none" fill="#1ac3fb">
      <g>
        <text style="font: 20px Roboto, sans-serif; white-space: pre;" font-size="20px" font-family="Roboto, sans-serif">
          <tspan x="12" y="34" dominant-baseline="ideographic">Documentation </tspan>
          <tspan x="12" y="58" dominant-baseline="ideographic">Sources</tspan>
        </text>
      </g>
    </g>
  </g>
  <g id="g-root-docu_1hckdh2lpb11k-stroke-fill" data-item-order="1000000000" transform="translate(146, 563)">
    <g id="docu_1hckdh2lpb11k-stroke" fill="none" stroke-linecap="round" stroke-linejoin="round" stroke-miterlimit="4" stroke="#1ac3fb" stroke-width="2">
      <g>
        <path d="M 18.125 18.125L 18.125 11.875C 18.125 11.184644 18.684645 10.625 19.375 10.625L 31.875 10.625L 39.375 18.125L 39.375 38.125C 39.375 38.815353 38.815353 39.375 38.125 39.375L 29.375 39.375M 31.875 10.625L 31.875 16.875C 31.875 17.565355 32.434647 18.125 33.125 18.125L 39.375 18.125M 11.875 35.625L 26.875 35.625L 26.875 35.625L 26.875 38.125C 26.875 38.815353 26.315357 39.375 25.625 39.375L 13.125 39.375C 12.434644 39.375 11.875 38.815353 11.875 38.125L 11.875 35.625L 11.875 35.625ZM 23.125 31.875C 21.771641 31.875551 20.66357 30.799061 20.625 29.446251L 20.625 29.446251C 20.602095 28.634384 20.975006 27.86199 21.625 27.375C 22.916292 26.406532 23.442991 24.720428 22.932564 23.189146C 22.422134 21.657864 20.989115 20.625 19.375 20.625C 17.760887 20.625 16.327866 21.657864 15.817438 23.189146C 15.307011 24.720428 15.83371 26.406532 17.125 27.375C 17.7728 27.863234 18.145184 28.634068 18.125 29.445L 18.125 29.445C 18.087093 30.7983 16.97883 31.875532 15.625 31.875L 13.125 31.875C 11.744288 31.875 10.625 32.994286 10.625 34.375C 10.625 35.065353 11.184644 35.625 11.875 35.625L 26.875 35.625C 27.565357 35.625 28.125 35.065353 28.125 34.375C 28.125 32.994286 27.005713 31.875 25.625 31.875ZM 36.25 23.123749L 26.25 23.123749M 36.25 33.123749L 31.25 33.123749M 36.25 28.123749L 28.125 28.123749"/>
      </g>
    </g>
  </g>
  <g id="g-root-tx_evidence_v47womlpcfeq-stroke-fill" data-item-order="1000000000" transform="translate(212, 682)">
    <g id="tx_evidence_v47womlpcfeq-fill" stroke="none" fill="#1ac3fb">
      <g>
        <text style="font: 20px Roboto, sans-serif; white-space: pre;" font-size="20px" font-family="Roboto, sans-serif">
          <tspan x="12" y="34" dominant-baseline="ideographic">Evidence </tspan>
          <tspan x="12" y="58" dominant-baseline="ideographic">Evaluation</tspan>
        </text>
      </g>
    </g>
  </g>
  <g id="g-root-uneq_hsrebalpcgzn-stroke-fill" data-item-order="1000000000" transform="translate(176, 691)">
    <g id="uneq_hsrebalpcgzn-stroke" fill="none" stroke-linecap="round" stroke-linejoin="round" stroke-miterlimit="4" stroke="#1ac3fb" stroke-width="2">
      <g>
        <path d="M 25 18.352501L 25 37.727501M 21.875 37.727501L 28.125 37.727501M 11.25 30.227499L 15.625 20.897501L 20 30.227499M 23.125 16.477501C 23.125 17.513035 23.964466 18.352501 25 18.352501C 26.035534 18.352501 26.875 17.513035 26.875 16.477501C 26.875 15.441966 26.035534 14.6025 25 14.6025C 23.964466 14.6025 23.125 15.441966 23.125 16.477501ZM 15.625 34.602501C 16.794004 34.631618 17.923801 34.180038 18.750669 33.353168C 19.577538 32.526302 20.029118 31.396505 20 30.227499L 11.25 30.227499C 11.220882 31.396505 11.672462 32.526302 12.499331 33.353168C 13.326199 34.180038 14.455995 34.631618 15.625 34.602501ZM 38.75 22.727501L 34.375 13.31125L 30 22.727501M 34.375 27.102501C 33.205994 27.131617 32.076195 26.680038 31.249331 25.853168C 30.422461 25.0263 29.970882 23.896505 29.999998 22.727499L 38.75 22.727501C 38.779114 23.896505 38.327538 25.0263 37.500671 25.853168C 36.673801 26.680038 35.544006 27.131617 34.375 27.102499ZM 26.8675 16.3475L 36.943748 12.2725M 13.0575 21.93375L 23.581249 17.67625"/>
      </g>
    </g>
  </g>
  <g id="g-root-tx_credibil_4hxd12lpcfet-stroke-fill" data-item-order="1000000000" transform="translate(188.00003051757812, 822)">
    <g id="tx_credibil_4hxd12lpcfet-fill" stroke="none" fill="#f79438">
      <g>
        <text style="font: 20px Roboto, sans-serif; white-space: pre;" font-size="20px" font-family="Roboto, sans-serif">
          <tspan x="17.42" y="34" dominant-baseline="ideographic">Credibility </tspan>
          <tspan x="27.77" y="58" dominant-baseline="ideographic">Issues?</tspan>
        </text>
      </g>
    </g>
  </g>
  <g id="g-root-tx_research_m9tulylpdvrb-stroke-fill" data-item-order="1000000000" transform="translate(88, 962)">
    <g id="tx_research_m9tulylpdvrb-fill" stroke="none" fill="#1ac3fb">
      <g>
        <text style="font: 20px Roboto, sans-serif; white-space: pre;" font-size="20px" font-family="Roboto, sans-serif">
          <tspan x="12" y="34" dominant-baseline="ideographic">Research </tspan>
          <tspan x="12" y="58" dominant-baseline="ideographic">Organizations</tspan>
        </text>
      </g>
    </g>
  </g>
  <g id="g-root-woma_8yztbqlpdu6g-stroke-fill" data-item-order="1000000000" transform="translate(52, 971)">
    <g id="woma_8yztbqlpdu6g-stroke" fill="none" stroke-linecap="round" stroke-linejoin="round" stroke-miterlimit="4" stroke="#1ac3fb" stroke-width="2">
      <g>
        <path d="M 25.639999 16.970001C 25.639999 20.096622 28.174627 22.631248 31.30125 22.631248C 34.427872 22.631248 36.962502 20.096622 36.962502 16.969999C 36.962502 13.843378 34.427872 11.30875 31.30125 11.30875C 28.174627 11.30875 25.639999 13.843378 25.639999 16.969999ZM 39.389999 25.05875L 35.330002 21M 30.639999 38.80875L 39.389999 38.80875C 39.389954 36.409248 38.13887 34.183372 36.089104 32.935944C 34.039337 31.688517 31.487494 31.600037 29.356251 32.702499M 36.5 26.307499C 36.389713 27.835476 35.42926 29.17148 34.01601 29.762753C 32.602764 30.354027 30.977076 30.100014 29.81156 29.105808C 28.646044 28.111603 28.138918 26.546289 28.5 25.057501M 25.762499 28.306252C 25.064287 27.158382 24.716709 25.831509 24.762499 24.48875L 24.762501 22.9275C 24.842051 20.957054 23.83617 19.101267 22.141739 18.092361C 20.447308 17.083456 18.336445 17.083456 16.642014 18.092361C 14.947582 19.101267 13.941701 20.957054 14.021251 22.927502L 14.02125 24.48875C 14.067039 25.831509 13.719462 27.158382 13.02125 28.30625M 14.01875 23.815001C 16.082893 23.813154 18.044384 22.91452 19.393751 21.352501C 20.742708 22.915062 22.704462 23.813818 24.768751 23.815001M 24.125 23.786251C 24.008696 26.316097 21.923769 28.307373 19.391251 28.307373C 16.85873 28.307373 14.773806 26.316097 14.6575 23.786251M 28.139999 38.80875C 28.139999 33.976257 24.222492 30.05875 19.390001 30.05875C 14.557508 30.05875 10.64 33.976257 10.64 38.80875ZM 23.815001 31.258751L 19.389999 35.68375L 14.965 31.258751"/>
      </g>
    </g>
  </g>
  <g id="g-root-tx_alternat_v5guuulpf8ci-stroke-fill" data-item-order="1000000000" transform="translate(300, 962)">
    <g id="tx_alternat_v5guuulpf8ci-fill" stroke="none" fill="#1ac3fb">
      <g>
        <text style="font: 20px Roboto, sans-serif; white-space: pre;" font-size="20px" font-family="Roboto, sans-serif">
          <tspan x="12" y="34" dominant-baseline="ideographic">Alternative </tspan>
          <tspan x="12" y="58" dominant-baseline="ideographic">Explanations</tspan>
        </text>
      </g>
    </g>
  </g>
  <g id="g-root-puzz_hu0chilpf9xf-stroke-fill" data-item-order="1000000000" transform="translate(264, 971)">
    <g id="puzz_hu0chilpf9xf-stroke" fill="none" stroke-linecap="round" stroke-linejoin="round" stroke-miterlimit="4" stroke="#1ac3fb" stroke-width="2">
      <g>
        <path d="M 35.612499 25C 35.612499 24.9 35.612499 24.7875 35.612499 24.6875C 35.612499 23.134199 34.353302 21.875 32.799999 21.875C 31.2467 21.875 29.987499 23.134199 29.987499 24.6875C 29.987499 24.7875 29.987499 24.9 29.987499 25L 26.5625 25L 26.5625 28.75L 26.875 28.75C 28.428301 28.75 29.6875 30.009197 29.6875 31.5625C 29.6875 33.115803 28.428301 34.375 26.875 34.375L 26.5625 34.375L 26.5625 38.125L 38.125 38.125C 38.815353 38.125 39.375 37.565353 39.375 36.875L 39.375 25ZM 26.875 28.75L 26.5625 28.75L 26.5625 25L 23.424999 25C 23.424999 25.1 23.424999 25.2125 23.424999 25.3125C 23.424999 26.865801 22.165802 28.125 20.612499 28.125C 19.059198 28.125 17.800001 26.865801 17.800001 25.3125C 17.799999 25.2125 17.799999 25.1 17.799999 25L 13.75 25L 13.75 28.75L 13.4375 28.75C 11.884199 28.75 10.625 30.009197 10.625 31.5625C 10.625 33.115803 11.884199 34.375 13.4375 34.375L 13.75 34.375L 13.75 36.875C 13.75 37.565353 14.309644 38.125 15 38.125L 26.5625 38.125L 26.5625 34.375L 26.875 34.375C 28.428301 34.375 29.6875 33.115803 29.6875 31.5625C 29.6875 30.009197 28.428301 28.75 26.875 28.75ZM 26.5625 21.25L 26.25 21.25C 24.696699 21.25 23.4375 19.990801 23.4375 18.4375C 23.4375 16.884199 24.696699 15.625 26.25 15.625L 26.5625 15.625L 26.5625 11.875L 15 11.875C 14.309644 11.875 13.75 12.434644 13.75 13.125L 13.75 15.625L 14.0625 15.625C 15.615801 15.625 16.875 16.884199 16.875 18.4375C 16.875 19.990801 15.615801 21.25 14.0625 21.25L 13.75 21.25L 13.75 25L 17.825001 25C 17.825001 25.1 17.825001 25.2125 17.825001 25.3125C 17.825001 26.865801 19.0842 28.125 20.637501 28.125C 22.190802 28.125 23.450001 26.865801 23.450001 25.3125C 23.450001 25.2125 23.450001 25.1 23.450001 25L 26.587502 25ZM 35.612499 11.875C 35.612499 11.975 35.612499 12.0875 35.612499 12.1875C 35.612499 13.740801 34.353302 15 32.799999 15C 31.2467 15 29.987499 13.740801 29.987499 12.1875C 29.987499 12.0875 29.987499 11.975 29.987499 11.875L 26.5625 11.875L 26.5625 15.625L 26.25 15.625C 24.696699 15.625 23.4375 16.884199 23.4375 18.4375C 23.4375 19.990801 24.696699 21.25 26.25 21.25L 26.5625 21.25L 26.5625 25L 30 25C 30 24.9 30 24.7875 30 24.6875C 30 23.134199 31.259197 21.875 32.8125 21.875C 34.365803 21.875 35.625 23.134199 35.625 24.6875C 35.625 24.7875 35.625 24.9 35.625 25L 39.375 25L 39.375 13.125C 39.375 12.434644 38.815353 11.875 38.125 11.875Z"/>
      </g>
    </g>
  </g>
  <g id="g-root-tx_cultural_18gaw52lpgnb9-stroke-fill" data-item-order="1000000000" transform="translate(218, 1090)">
    <g id="tx_cultural_18gaw52lpgnb9-fill" stroke="none" fill="#1ac3fb">
      <g>
        <text style="font: 20px Roboto, sans-serif; white-space: pre;" font-size="20px" font-family="Roboto, sans-serif">
          <tspan x="12" y="34" dominant-baseline="ideographic">Cultural </tspan>
          <tspan x="12" y="58" dominant-baseline="ideographic">Impact</tspan>
        </text>
      </g>
    </g>
  </g>
  <g id="g-root-ufo_zknvw6lpgo3y-stroke-fill" data-item-order="1000000000" transform="translate(182, 1099)">
    <g id="ufo_zknvw6lpgo3y-stroke" fill="none" stroke-linecap="round" stroke-linejoin="round" stroke-miterlimit="4" stroke="#1ac3fb" stroke-width="2">
      <g>
        <path d="M 34.375 17.8125C 36.86116 17.811901 38.9701 19.63805 39.324997 22.098749C 39.350906 22.279259 39.29668 22.462078 39.176544 22.599274C 39.056412 22.736465 38.882347 22.814348 38.699997 22.8125L 11.29375 22.8125C 11.111402 22.814348 10.93734 22.736465 10.817204 22.599274C 10.69707 22.462078 10.642846 22.279259 10.66875 22.098749C 11.023986 19.635698 13.136466 17.80879 15.625 17.8125ZM 15.625 17.8125C 15.625 14.6875 19.8225 10.9375 25 10.9375C 30.1775 10.9375 34.375 14.6875 34.375 17.8125M 33.606251 28.4375L 36.872498 39.0625M 13.122499 39.0625L 16.395 28.4375M 25.622499 34.6875L 23.747499 37.282501M 27.497499 37.1875L 25.622499 34.6875M 23.747499 32.8125L 27.497499 32.8125M 25.625 29.6875C 25.970177 29.6875 26.25 29.967323 26.25 30.3125M 25 30.3125C 25 29.967323 25.279823 29.6875 25.625 29.6875M 25.625 30.9375C 25.279823 30.9375 25 30.657677 25 30.3125M 26.25 30.3125C 26.25 30.657677 25.970177 30.9375 25.625 30.9375M 25.622499 34.6875L 25.622499 32.8125M 19.375 22.8125C 19.375 24.538389 17.975889 25.9375 16.25 25.9375C 14.52411 25.9375 13.125 24.538389 13.125 22.8125M 28.125 22.8125C 28.125 24.538389 26.725891 25.9375 25 25.9375C 23.274111 25.9375 21.875 24.538389 21.875 22.8125M 36.875 22.8125C 36.875 24.538389 35.475891 25.9375 33.75 25.9375C 32.024109 25.9375 30.625 24.538389 30.625 22.8125"/>
      </g>
    </g>
  </g>
  <g id="g-root-tx_research_1lt0comlpi1a8-stroke-fill" data-item-order="1000000000" transform="translate(212, 1218)">
    <g id="tx_research_1lt0comlpi1a8-fill" stroke="none" fill="#1ac3fb">
      <g>
        <text style="font: 20px Roboto, sans-serif; white-space: pre;" font-size="20px" font-family="Roboto, sans-serif">
          <tspan x="12" y="34" dominant-baseline="ideographic">Research </tspan>
          <tspan x="12" y="58" dominant-baseline="ideographic">Gaps</tspan>
        </text>
      </g>
    </g>
  </g>
  <g id="g-root-sear_18hjubalpi2v5-stroke-fill" data-item-order="1000000000" transform="translate(176, 1227)">
    <g id="sear_18hjubalpi2v5-stroke" fill="none" stroke-linecap="round" stroke-linejoin="round" stroke-miterlimit="4" stroke="#1ac3fb" stroke-width="2">
      <g>
        <path d="M 19.375 16.737499L 19.375 36.737499M 28.125 23.125L 28.125 10.625M 23.125 34.200001L 19.737499 36.612503C 19.523153 36.775013 19.226845 36.775013 19.012499 36.612499L 10.8875 30.8125C 10.723438 30.693167 10.625969 30.502871 10.625 30.299999L 10.625 11.25C 10.620945 11.016626 10.752598 10.802081 10.9625 10.7C 11.161297 10.575552 11.413703 10.575552 11.6125 10.7L 19.375 16.737499L 27.762501 10.7375C 27.980644 10.586706 28.269356 10.586706 28.487499 10.7375L 36.612503 16.549999C 36.776196 16.66398 36.874138 16.850533 36.875 17.049999L 36.875 24.375M 36.875 31.25C 36.875 34.356602 34.356602 36.875 31.25 36.875C 28.143398 36.875 25.625 34.356602 25.625 31.25C 25.625 28.143398 28.143398 25.625 31.25 25.625C 34.356602 25.625 36.875 28.143398 36.875 31.25ZM 35.224998 35.224998L 39.375 39.375"/>
      </g>
    </g>
  </g>
</svg>
