<?xml version='1.0' encoding='UTF-8'?>
<svg xmlns="http://www.w3.org/2000/svg" xmlns:xlink="http://www.w3.org/1999/xlink" width="984" height="708" viewBox="0 0 984 708" style="fill:none;stroke:none;fill-rule:evenodd;clip-rule:evenodd;stroke-linecap:round;stroke-linejoin:round;stroke-miterlimit:1.5;" version="1.1">
  <style class="text-font-style fontImports" data-font-family="Roboto">@import url('https://fonts.googleapis.com/css2?family=Roboto:wght@400;700&amp;display=block');</style>
  <rect x="0" y="0" width="984" height="708" fill="#2c2c2c" stroke="none" id="programmatic_background"/>
  <g id="g-root-tf_qn65p2i3q5fn-stroke-fill" data-item-order="-656640" transform="translate(2, 2)"/>
  <g id="g-root-4.cu_sy_1hdu0yei3hqff-stroke-fill" data-item-order="-317369" transform="translate(602, 386)">
    <g id="4.cu_sy_1hdu0yei3hqff-stroke" fill="none" stroke-linecap="round" stroke-linejoin="round" stroke-miterlimit="4" stroke="#cb68f9" stroke-width="2">
      <g>
        <path d="M 33.850586 154.000488L 45.850586 154.000488M 58.200195 70L 70.200195 70M 87.9997 10L 21.9997 238L 10 238"/>
      </g>
    </g>
  </g>
  <g id="g-root-3.cu_sy_1cy0ityi3hr7o-stroke-fill" data-item-order="-317365" transform="translate(602, 158.00048828125)">
    <g id="3.cu_sy_1cy0ityi3hr7o-stroke" fill="none" stroke-linecap="round" stroke-linejoin="round" stroke-miterlimit="4" stroke="#1ac3fb" stroke-width="2">
      <g>
        <path d="M 33.84668 93.999512L 45.84668 93.999512M 58.195313 177.999512L 70.195313 177.999512M 87.9997 238L 21.9997 10L 10 10"/>
      </g>
    </g>
  </g>
  <g id="g-root-2.cu_sy_142zzo6i3houl-stroke-fill" data-item-order="-317361" transform="translate(290, 385.99951171875)">
    <g id="2.cu_sy_142zzo6i3houl-stroke" fill="none" stroke-linecap="round" stroke-linejoin="round" stroke-miterlimit="4" stroke="#43dd93" stroke-width="2">
      <g>
        <path d="M 33.851563 154.000488L 45.851563 154.000488M 58.200195 70.000488L 70.200195 70.000488M 87.9997 10L 21.9997 238L 10 238"/>
      </g>
    </g>
  </g>
  <g id="g-root-1.cu_sy_qrjhaui3hqfi-stroke-fill" data-item-order="-317357" transform="translate(290, 158.00048828125)">
    <g id="1.cu_sy_qrjhaui3hqfi-stroke" fill="none" stroke-linecap="round" stroke-linejoin="round" stroke-miterlimit="4" stroke="#b7b7b7" stroke-width="2">
      <g>
        <path d="M 33.851563 93.999512L 45.851563 93.999512M 58.200195 177.999512L 70.200195 177.999512M 87.9997 238L 21.9997 10L 10 10"/>
      </g>
    </g>
  </g>
  <g id="g-root--1.line_sy_mbpz6ei3hr7r-stroke-fill" data-item-order="-317351" transform="translate(26, 386)">
    <g id="-1.line_sy_mbpz6ei3hr7r-stroke" fill="none" stroke-linecap="round" stroke-linejoin="round" stroke-miterlimit="4" stroke="#f4f4f4" stroke-width="2">
      <g>
        <path d="M 704 10L 10 10"/>
        <path d="M 698 16.5L 704.5 10L 698 3.5" stroke-dasharray="none"/>
      </g>
    </g>
  </g>
  <g id="g-root-tx_complexu_mbpz6ei3hr7s-stroke-fill" data-item-order="0" transform="translate(794, 350)">
    <g id="tx_complexu_mbpz6ei3hr7s-fill" stroke="none" fill="#f4f4f4">
      <g>
        <text style="font: 20px Roboto, sans-serif; white-space: pre;" font-size="20px" font-family="Roboto, sans-serif">
          <tspan x="12" y="34" dominant-baseline="ideographic">Complex UFO </tspan>
          <tspan x="12" y="58" dominant-baseline="ideographic">Phenomena in </tspan>
          <tspan x="12" y="82" dominant-baseline="ideographic">Argentina</tspan>
        </text>
      </g>
    </g>
  </g>
  <g id="g-root-tx_mediasen_90vxw6i3hpmx-stroke-fill" data-item-order="0" transform="translate(434, 422)">
    <g id="tx_mediasen_90vxw6i3hpmx-fill" stroke="none" fill="#f4f4f4">
      <g>
        <text style="font: 20px Roboto, sans-serif; white-space: pre;" font-size="20px" font-family="Roboto, sans-serif">
          <tspan x="16.45" y="34" dominant-baseline="ideographic">Media sensationalism </tspan>
          <tspan x="48.06" y="58" dominant-baseline="ideographic">and public interest</tspan>
        </text>
      </g>
    </g>
  </g>
  <g id="g-root-tx_transfor_1uqjhhyi3hr0q-stroke-fill" data-item-order="0" transform="translate(446, 506)">
    <g id="tx_transfor_1uqjhhyi3hr0q-fill" stroke="none" fill="#f4f4f4">
      <g>
        <text style="font: 20px Roboto, sans-serif; white-space: pre;" font-size="20px" font-family="Roboto, sans-serif">
          <tspan x="15.42" y="34" dominant-baseline="ideographic">Transformation of </tspan>
          <tspan x="21.67" y="58" dominant-baseline="ideographic">Capilla del Monte</tspan>
        </text>
      </g>
    </g>
  </g>
  <g id="g-root-tx_cultural_1qbcggmi3hon7-stroke-fill" data-item-order="0" transform="translate(410, 602)">
    <g id="tx_cultural_1qbcggmi3hon7-fill" stroke="none" fill="#f4f4f4">
      <g>
        <text style="font: 20px Roboto, sans-serif; white-space: pre;" font-size="20px" font-family="Roboto, sans-serif">
          <tspan x="16.33" y="34" dominant-baseline="ideographic">Cultural Impact</tspan>
        </text>
      </g>
    </g>
  </g>
  <g id="g-root-tx_fabricat_1czvy3ai3hq84-stroke-fill" data-item-order="0" transform="translate(446, 302)">
    <g id="tx_fabricat_1czvy3ai3hq84-fill" stroke="none" fill="#f4f4f4">
      <g>
        <text style="font: 20px Roboto, sans-serif; white-space: pre;" font-size="20px" font-family="Roboto, sans-serif">
          <tspan x="16.3" y="34" dominant-baseline="ideographic">Fabricated claims by </tspan>
          <tspan x="105.02" y="58" dominant-baseline="ideographic">individuals</tspan>
        </text>
      </g>
    </g>
  </g>
  <g id="g-root-tx_photogra_zp1wt2i3hon9-stroke-fill" data-item-order="0" transform="translate(398, 218)">
    <g id="tx_photogra_zp1wt2i3hon9-fill" stroke="none" fill="#f4f4f4">
      <g>
        <text style="font: 20px Roboto, sans-serif; white-space: pre;" font-size="20px" font-family="Roboto, sans-serif">
          <tspan x="21.13" y="34" dominant-baseline="ideographic">Photographic evidence </tspan>
          <tspan x="128.09" y="58" dominant-baseline="ideographic">challenges</tspan>
        </text>
      </g>
    </g>
  </g>
  <g id="g-root-tx_evidence_qtewk6i3hpfy-stroke-fill" data-item-order="0" transform="translate(374, 146)">
    <g id="tx_evidence_qtewk6i3hpfy-fill" stroke="none" fill="#f4f4f4">
      <g>
        <text style="font: 20px Roboto, sans-serif; white-space: pre;" font-size="20px" font-family="Roboto, sans-serif">
          <tspan x="15.19" y="34" dominant-baseline="ideographic">Evidence Credibility</tspan>
        </text>
      </g>
    </g>
  </g>
  <g id="g-root-tx_historic_dhye6ui3hr0v-stroke-fill" data-item-order="0" transform="translate(158, 422)">
    <g id="tx_historic_dhye6ui3hr0v-fill" stroke="none" fill="#f4f4f4">
      <g>
        <text style="font: 20px Roboto, sans-serif; white-space: pre;" font-size="20px" font-family="Roboto, sans-serif">
          <tspan x="20" y="34" dominant-baseline="ideographic">Historical military </tspan>
          <tspan x="51.91" y="58" dominant-baseline="ideographic">investigations</tspan>
        </text>
      </g>
    </g>
  </g>
  <g id="g-root-tx_cefaesfi_4mxv12i3hpfk-stroke-fill" data-item-order="0" transform="translate(110, 506)">
    <g id="tx_cefaesfi_4mxv12i3hpfk-fill" stroke="none" fill="#f4f4f4">
      <g>
        <text style="font: 20px Roboto, sans-serif; white-space: pre;" font-size="20px" font-family="Roboto, sans-serif">
          <tspan x="14.77" y="34" dominant-baseline="ideographic">CEFAE's findings and </tspan>
          <tspan x="106.27" y="58" dominant-baseline="ideographic">limitations</tspan>
        </text>
      </g>
    </g>
  </g>
  <g id="g-root-tx_governme_1qclemui3hqtd-stroke-fill" data-item-order="0" transform="translate(110, 590)">
    <g id="tx_governme_1qclemui3hqtd-fill" stroke="none" fill="#f4f4f4">
      <g>
        <text style="font: 20px Roboto, sans-serif; white-space: pre;" font-size="20px" font-family="Roboto, sans-serif">
          <tspan x="31.39" y="34" dominant-baseline="ideographic">Government </tspan>
          <tspan x="15.33" y="58" dominant-baseline="ideographic">Investigations</tspan>
        </text>
      </g>
    </g>
  </g>
  <g id="g-root-tx_cultural_1d1rdcmi3hp8i-stroke-fill" data-item-order="0" transform="translate(122, 302)">
    <g id="tx_cultural_1d1rdcmi3hp8i-fill" stroke="none" fill="#f4f4f4">
      <g>
        <text style="font: 20px Roboto, sans-serif; white-space: pre;" font-size="20px" font-family="Roboto, sans-serif">
          <tspan x="18.73" y="34" dominant-baseline="ideographic">Cultural impact of key </tspan>
          <tspan x="153.44" y="58" dominant-baseline="ideographic">events</tspan>
        </text>
      </g>
    </g>
  </g>
  <g id="g-root-tx_military_zqauzai3hqtf-stroke-fill" data-item-order="0" transform="translate(86, 218)">
    <g id="tx_military_zqauzai3hqtf-fill" stroke="none" fill="#f4f4f4">
      <g>
        <text style="font: 20px Roboto, sans-serif; white-space: pre;" font-size="20px" font-family="Roboto, sans-serif">
          <tspan x="17.72" y="34" dominant-baseline="ideographic">Military sightings in the </tspan>
          <tspan x="168.7" y="58" dominant-baseline="ideographic">1960s</tspan>
        </text>
      </g>
    </g>
  </g>
  <g id="g-root-tx_historic_mfgtp2i3hp8k-stroke-fill" data-item-order="0" transform="translate(62, 146)">
    <g id="tx_historic_mfgtp2i3hp8k-fill" stroke="none" fill="#f4f4f4">
      <g>
        <text style="font: 20px Roboto, sans-serif; white-space: pre;" font-size="20px" font-family="Roboto, sans-serif">
          <tspan x="16.36" y="34" dominant-baseline="ideographic">Historical Incidents</tspan>
        </text>
      </g>
    </g>
  </g>
  <g id="g-root-tx_analyzin_940bbqi3hqth-stroke-fill" data-item-order="0" transform="translate(338, 50)">
    <g id="tx_analyzin_940bbqi3hqth-fill" stroke="none" fill="#f4f4f4">
      <g>
        <text style="font: 20px Roboto, sans-serif; white-space: pre;" font-size="20px" font-family="Roboto, sans-serif">
          <tspan x="13.75" y="34" dominant-baseline="ideographic">Analyzing UFO Phenomena in Argentina</tspan>
        </text>
      </g>
    </g>
    <defs>
      <pattern id="crawlingPattern-0000001b" x="0" y="0" width="12" height="12" patternUnits="userSpaceOnUse" fill="#0000001b">
        <use href="#crawlingSymbol"/>
      </pattern>
      <symbol id="crawlingSymbol">
        <g>
          <path d="M -12.5 12.5 l 13 -13 l 6 0 l -13 13 Z M -0.5 12.5 l 13 -13 l 6 0 l -13 13 Z M 11.5 12.5 l 13 -13 l 6 0 l -13 13 Z"/>
        </g>
      </symbol>
    </defs>
  </g>
  <g id="g-root-hosp_8zs5yi3hoge-stroke-fill" data-item-order="0" transform="translate(254, 140)">
    <g id="hosp_8zs5yi3hoge-stroke" fill="none" stroke-linecap="round" stroke-linejoin="round" stroke-miterlimit="4" stroke="#f4f4f4" stroke-width="2">
      <g>
        <path d="M 10.75 28C 10.75 37.526913 18.473087 45.25 28 45.25C 37.526913 45.25 45.25 37.526913 45.25 28C 45.25 18.473087 37.526913 10.75 28 10.75C 18.473087 10.75 10.75 18.473087 10.75 28M 31 22L 31 34M 25 34L 25 22M 25 28L 31 28"/>
      </g>
    </g>
  </g>
  <g id="g-root-glob_147db9yi3j5l3-stroke-fill" data-item-order="0" transform="translate(254, 596)">
    <g id="glob_147db9yi3j5l3-stroke" fill="none" stroke-linecap="round" stroke-linejoin="round" stroke-miterlimit="4" stroke="#f4f4f4" stroke-width="2">
      <g>
        <path d="M 32.875 41.875L 32.875 14.125L 37.375 14.125C 41.517136 14.125 44.875 17.482864 44.875 21.625C 44.875 25.767136 41.517136 29.125 37.375 29.125L 32.875 29.125L 44.875 41.875M 28 44.875C 18.680195 44.875 11.125 37.319805 11.125 28C 11.125 18.680195 18.680195 11.125 28 11.125M 12.097 22.375L 26.875 22.375M 12.103 33.625L 26.875 33.625M 28 44.875C 23.650002 44.875 20.125 37.3195 20.125 28C 20.125 18.6805 23.650002 11.125 28 11.125"/>
      </g>
    </g>
  </g>
  <g id="g-root-helm_94yei3lvyg-stroke-fill" data-item-order="0" transform="translate(566, 140)">
    <g id="helm_94yei3lvyg-stroke" fill="none" stroke-linecap="round" stroke-linejoin="round" stroke-miterlimit="4" stroke="#f4f4f4" stroke-width="2">
      <g>
        <path d="M 21.625 40.375L 21.625 28.375C 21.625 27.474998 22.224998 26.875 23.125 26.875L 24.625 26.875C 25.525002 26.875 26.125 27.474998 26.125 28.375L 26.125 40.375M 26.125 29.275002C 30.474998 30.325001 33.625 34.224998 33.625 38.724998L 33.625 40.375M 21.625 29.275002C 17.275 30.325001 14.125 34.224998 14.125 38.724998L 14.125 40.375M 36.625 43.375C 36.625 44.275002 36.025002 44.875 35.125 44.875L 12.625 44.875C 11.725 44.875 11.125 44.275002 11.125 43.375L 11.125 41.875C 11.125 40.974998 11.725 40.375 12.625 40.375L 35.125 40.375C 36.025002 40.375 36.625 40.974998 36.625 41.875L 36.625 43.375ZM 35.125 24.625C 38.852951 24.625 41.875 21.602921 41.875 17.875C 41.875 14.147079 38.852951 11.125 35.125 11.125C 31.397049 11.125 28.375 14.147079 28.375 17.875C 28.375 21.602921 31.397049 24.625 35.125 24.625ZM 10 10M 44.875 27.625L 40.074997 22.675014"/>
      </g>
    </g>
  </g>
  <g id="g-root-camp_9599hyi3lx4x-stroke-fill" data-item-order="0" transform="translate(566, 596)">
    <g id="camp_9599hyi3lx4x-stroke" fill="none" stroke-linecap="round" stroke-linejoin="round" stroke-miterlimit="4" stroke="#f4f4f4" stroke-width="2">
      <g>
        <path d="M 22.613501 17.6395C 16.682499 19.111 12.172 23.386 12.172 28.4305C 12.172 33.647499 17.089001 38.030502 23.6485 39.350498C 23.414694 41.416664 22.526459 43.35397 21.113501 44.879501C 27.3535 44.879501 30.740499 43.111 32.344002 39.352001C 38.9095 38.033501 43.827999 33.652 43.827999 28.4305C 43.827999 23.278 38.728001 18.929501 33.2005 17.5495M 31.935999 11.1775L 18.136 32.4175C 17.986401 32.648247 17.975082 32.94236 18.106501 33.183922C 18.237921 33.425484 18.491003 33.575752 18.765999 33.5755L 37 33.5755C 37.274727 33.575203 37.527306 33.424721 37.658356 33.183262C 37.789406 32.941807 37.777954 32.648022 37.628502 32.4175L 23.782 11.1205M 22.627001 33.5755L 27.877001 25.3255L 33.126999 33.5755"/>
      </g>
    </g>
  </g>
  <g id="g-root-ufo_1lz9suui3ncp6-stroke-fill" data-item-order="0" transform="translate(734, 362)">
    <g id="ufo_1lz9suui3ncp6-stroke" fill="none" stroke-linecap="round" stroke-linejoin="round" stroke-miterlimit="4" stroke="#f4f4f4" stroke-width="2">
      <g>
        <path d="M 49 22.5C 52.977859 22.499041 56.352161 25.420879 56.919998 29.358C 56.961449 29.646814 56.874687 29.939325 56.682472 30.158836C 56.490257 30.378345 56.211758 30.502958 55.919998 30.5L 12.07 30.5C 11.778242 30.502958 11.499743 30.378345 11.307528 30.158836C 11.115312 29.939325 11.028553 29.646814 11.07 29.358C 11.638377 25.417118 15.018346 22.494064 19 22.5ZM 19 22.5C 19 17.5 25.716 11.5 34 11.5C 42.284 11.5 49 17.5 49 22.5M 47.77 39.5L 52.995998 56.5M 14.996 56.5L 20.232 39.5M 34.996002 49.5L 31.996 53.652M 37.996002 53.5L 34.996002 49.5M 31.996 46.5L 37.996002 46.5M 35 41.5C 35.552284 41.5 36 41.947716 36 42.5M 34 42.5C 34 41.947716 34.447716 41.5 35 41.5M 35 43.5C 34.447716 43.5 34 43.052284 34 42.5M 36 42.5C 36 43.052284 35.552284 43.5 35 43.5M 34.996002 49.5L 34.996002 46.5M 25 30.5C 25 33.261421 22.761425 35.5 20 35.5C 17.238577 35.5 15 33.261421 15 30.5M 39 30.5C 39 33.261421 36.761425 35.5 34 35.5C 31.238577 35.5 29 33.261421 29 30.5M 53 30.5C 53 33.261421 50.761425 35.5 48 35.5C 45.238575 35.5 43 33.261421 43 30.5"/>
      </g>
    </g>
  </g>
</svg>
