<?xml version='1.0' encoding='UTF-8'?>
<svg xmlns="http://www.w3.org/2000/svg" xmlns:xlink="http://www.w3.org/1999/xlink" width="624" height="672" viewBox="0 0 624 672" style="fill:none;stroke:none;fill-rule:evenodd;clip-rule:evenodd;stroke-linecap:round;stroke-linejoin:round;stroke-miterlimit:1.5;" version="1.1">
  <style class="text-font-style fontImports" data-font-family="Roboto">@import url('https://fonts.googleapis.com/css2?family=Roboto:wght@400;700&amp;display=block');</style>
  <rect x="0" y="0" width="624" height="672" fill="#2c2c2c" stroke="none" id="programmatic_background"/>
  <g id="g-root-tf_zoetlyi3c2dd-stroke-fill" data-item-order="-381024" transform="translate(8, 2)"/>
  <g id="g-root--1.cu_sy_1ltmtt2i3lwcq-stroke-fill" data-item-order="-259194" transform="translate(32, 122)">
    <g id="-1.cu_sy_1ltmtt2i3lwcq-fill" stroke="none" fill="none">
      <g>
        <path d="M 10 490L 10 418L 82.5 418L 82.5 490L 10 490ZM 34 394L 10 418L 82.5 418L 106 394L 34 394ZM 34 394L 34 322L 106 322L 106 394L 34 394ZM 58 298L 34 322L 106 322L 130 298L 58 298ZM 58 298L 58 226L 130 226L 130 298L 58 298ZM 82 202L 58 226L 130 226L 154 202L 82 202ZM 82 202L 82 130L 154 130L 154 202L 82 202ZM 106 106L 82 130L 154 130L 178 106L 106 106ZM 106 106L 106 34L 178 34L 178 106L 106 106ZM 130 10L 106 34L 178 34L 202 10L 130 10Z"/>
      </g>
    </g>
    <g id="-1.cu_sy_1ltmtt2i3lwcq-stroke" fill="none" stroke-linecap="round" stroke-linejoin="round" stroke-miterlimit="4" stroke="#f4f4f4" stroke-width="2">
      <g>
        <path d="M 10 490L 10 418L 82.5 418L 82.5 490L 10 490ZM 10 418L 34 394L 106 394L 82.5 418L 10 418ZM 34 394L 34 322L 106 322L 106 394L 34 394ZM 34 322L 58 298L 130 298L 106 322L 34 322ZM 58 298L 58 226L 130 226L 130 298L 58 298ZM 58 226L 82 202L 154 202L 130 226L 58 226ZM 82 202L 82 130L 154 130L 154 202L 82 202ZM 82 130L 106 106L 178 106L 154 130L 82 130ZM 106 106L 106 34L 178 34L 178 106L 106 106ZM 106 34L 130 10L 202 10L 178 34L 106 34Z"/>
      </g>
    </g>
  </g>
  <g id="g-root--1.cu_1_sy_18i6bfqi3lxxn-stroke-fill" data-item-order="-259190" transform="translate(380, 122)">
    <g id="-1.cu_1_sy_18i6bfqi3lxxn-fill" stroke="none" fill="none">
      <g>
        <path d="M 202 490L 202 418L 130.5 418L 130.5 490L 202 490ZM 202 418L 178 394L 106 394L 130.5 418L 202 418ZM 178 322L 178 394L 106 394L 106 322L 178 322ZM 178 322L 154 298L 82 298L 106 322L 178 322ZM 154 226L 154 298L 82 298L 82 226L 154 226ZM 154 226L 130 202L 58 202L 82 226L 154 226ZM 130 130L 130 202L 58 202L 58 130L 130 130ZM 130 130L 106 106L 34 106L 58 130L 130 130ZM 106 34L 106 106L 34 106L 34 34L 106 34ZM 106 34L 82 10L 10 10L 34 34L 106 34Z"/>
      </g>
    </g>
    <g id="-1.cu_1_sy_18i6bfqi3lxxn-stroke" fill="none" stroke-linecap="round" stroke-linejoin="round" stroke-miterlimit="4" stroke="#f4f4f4" stroke-width="2">
      <g>
        <path d="M 202 418L 202 490L 130.5 490L 130.5 418L 202 418ZM 202 418L 178 394L 106 394L 130.5 418L 202 418ZM 178 322L 178 394L 106 394L 106 322L 178 322ZM 178 322L 154 298L 82 298L 106 322L 178 322ZM 154 226L 154 298L 82 298L 82 226L 154 226ZM 154 226L 130 202L 58 202L 82 226L 154 226ZM 130 130L 130 202L 58 202L 58 130L 130 130ZM 130 130L 106 106L 34 106L 58 130L 130 130ZM 106 106L 106 34L 34 34L 34 106L 106 106ZM 106 34L 82 10L 10 10L 34 34L 106 34Z"/>
      </g>
    </g>
  </g>
  <g id="g-root-1.cu_sy_v7ca5ii3lwcs-stroke-fill" data-item-order="-259186" transform="translate(104.49984741210938, 506)">
    <g id="1.cu_sy_v7ca5ii3lwcs-fill" stroke="none" fill="none">
      <g>
        <path d="M 10 106L 10 34L 406 34L 406 106L 10 106ZM 381.5 10L 406 34L 10 34L 33.5 10L 381.5 10Z"/>
      </g>
    </g>
    <g id="1.cu_sy_v7ca5ii3lwcs-stroke" fill="none" stroke-linecap="round" stroke-linejoin="round" stroke-miterlimit="4" stroke="#4f91fc" stroke-width="2">
      <g>
        <path d="M 10 34L 10 106L 406 106L 406 34L 10 34ZM 406 34L 381.5 10L 33.5 10L 10 34L 406 34Z"/>
      </g>
    </g>
  </g>
  <g id="g-root-2.cu_sy_qris12i3lx51-stroke-fill" data-item-order="-259182" transform="translate(128, 410)">
    <g id="2.cu_sy_qris12i3lx51-fill" stroke="none" fill="none">
      <g>
        <path d="M 10 106L 10 34L 358 34L 358 106L 10 106ZM 334 10L 358 34L 10 34L 34 10L 334 10Z"/>
      </g>
    </g>
    <g id="2.cu_sy_qris12i3lx51-stroke" fill="none" stroke-linecap="round" stroke-linejoin="round" stroke-miterlimit="4" stroke="#b7b7b7" stroke-width="2">
      <g>
        <path d="M 10 34L 10 106L 358 106L 358 34L 10 34ZM 358 34L 334 10L 34 10L 10 34L 358 34Z"/>
      </g>
    </g>
  </g>
  <g id="g-root-3.cu_sy_hvvrs6i3lxxq-stroke-fill" data-item-order="-259178" transform="translate(152, 314)">
    <g id="3.cu_sy_hvvrs6i3lxxq-fill" stroke="none" fill="none">
      <g>
        <path d="M 10 34L 10 106L 310 106L 310 34L 10 34ZM 286 10L 310 34L 10 34L 34 10L 286 10Z"/>
      </g>
    </g>
    <g id="3.cu_sy_hvvrs6i3lxxq-stroke" fill="none" stroke-linecap="round" stroke-linejoin="round" stroke-miterlimit="4" stroke="#43dd93" stroke-width="2">
      <g>
        <path d="M 10 106L 10 34L 310 34L 310 106L 10 106ZM 310 34L 286 10L 34 10L 10 34L 310 34Z"/>
      </g>
    </g>
  </g>
  <g id="g-root-4.cu_sy_dg29nqi3lypz-stroke-fill" data-item-order="-259174" transform="translate(176.00009155273438, 218)">
    <g id="4.cu_sy_dg29nqi3lypz-fill" stroke="none" fill="none">
      <g>
        <path d="M 10 106L 10 34L 262 34L 262 106L 10 106ZM 238 10L 262 34L 10 34L 34 10L 238 10Z"/>
      </g>
    </g>
    <g id="4.cu_sy_dg29nqi3lypz-stroke" fill="none" stroke-linecap="round" stroke-linejoin="round" stroke-miterlimit="4" stroke="#a6da37" stroke-width="2">
      <g>
        <path d="M 10 34L 10 106L 262 106L 262 34L 10 34ZM 262 34L 238 10L 34 10L 10 34L 262 34Z"/>
      </g>
    </g>
  </g>
  <g id="g-root-5.cu_sy_90v8mei3lwcg-stroke-fill" data-item-order="-259170" transform="translate(200.00009155273438, 122)">
    <g id="5.cu_sy_90v8mei3lwcg-fill" stroke="none" fill="none">
      <g>
        <path d="M 10 106L 10 34L 214 34L 214 106L 10 106ZM 190 10L 214 34L 10 34L 34 10L 190 10Z"/>
      </g>
    </g>
    <g id="5.cu_sy_90v8mei3lwcg-stroke" fill="none" stroke-linecap="round" stroke-linejoin="round" stroke-miterlimit="4" stroke="#fb6762" stroke-width="2">
      <g>
        <path d="M 10 34L 10 106L 214 106L 214 34L 10 34ZM 214 34L 190 10L 34 10L 10 34L 214 34Z"/>
      </g>
    </g>
  </g>
  <g id="g-root-tx_progress_588dii3lx55-stroke-fill" data-item-order="0" transform="translate(122, 50)">
    <g id="tx_progress_588dii3lx55-fill" stroke="none" fill="#f4f4f4">
      <g>
        <text style="font: 20px Roboto, sans-serif; white-space: pre;" font-size="20px" font-family="Roboto, sans-serif">
          <tspan x="14.2" y="34" dominant-baseline="ideographic">Progression of Armenian UFO Research</tspan>
        </text>
      </g>
    </g>
  </g>
  <g id="g-root-tx_document_1luvrzai3lyiy-stroke-fill" data-item-order="0" transform="translate(194, 554)">
    <g id="tx_document_1luvrzai3lyiy-fill" stroke="none" fill="#4f91fc">
      <g>
        <text style="font: 20px Roboto, sans-serif; white-space: pre;" font-size="20px" font-family="Roboto, sans-serif">
          <tspan x="17.2" y="34" dominant-baseline="ideographic">Documented Sightings</tspan>
        </text>
      </g>
    </g>
  </g>
  <g id="g-root-tx_official_18k1qp2i3lwy3-stroke-fill" data-item-order="0" transform="translate(212, 458)">
    <g id="tx_official_18k1qp2i3lwy3-fill" stroke="none" fill="#b7b7b7">
      <g>
        <text style="font: 20px Roboto, sans-serif; white-space: pre;" font-size="20px" font-family="Roboto, sans-serif">
          <tspan x="17.47" y="34" dominant-baseline="ideographic">Official Responses</tspan>
        </text>
      </g>
    </g>
  </g>
  <g id="g-root-tx_scientif_14488kmi3lxqc-stroke-fill" data-item-order="0" transform="translate(218, 362)">
    <g id="tx_scientif_14488kmi3lxqc-fill" stroke="none" fill="#43dd93">
      <g>
        <text style="font: 20px Roboto, sans-serif; white-space: pre;" font-size="20px" font-family="Roboto, sans-serif">
          <tspan x="13.2" y="34" dominant-baseline="ideographic">Scientific Analysis</tspan>
        </text>
      </g>
    </g>
  </g>
  <g id="g-root-tx_cultural_v8l8bqi3lyj1-stroke-fill" data-item-order="0" transform="translate(230, 266)">
    <g id="tx_cultural_v8l8bqi3lyj1-fill" stroke="none" fill="#a6da37">
      <g>
        <text style="font: 20px Roboto, sans-serif; white-space: pre;" font-size="20px" font-family="Roboto, sans-serif">
          <tspan x="14.16" y="34" dominant-baseline="ideographic">Cultural Impact</tspan>
        </text>
      </g>
    </g>
  </g>
  <g id="g-root-tx_futurere_hxr71ii3lwy6-stroke-fill" data-item-order="0" transform="translate(224, 158)">
    <g id="tx_futurere_hxr71ii3lwy6-fill" stroke="none" fill="#fb6762">
      <g>
        <text style="font: 20px Roboto, sans-serif; white-space: pre;" font-size="20px" font-family="Roboto, sans-serif">
          <tspan x="13.31" y="34" dominant-baseline="ideographic">Future Research </tspan>
          <tspan x="36.28" y="58" dominant-baseline="ideographic">Challenges</tspan>
        </text>
      </g>
    </g>
    <defs>
      <pattern id="crawlingPattern-0000001b" x="0" y="0" width="12" height="12" patternUnits="userSpaceOnUse" fill="#0000001b">
        <use href="#crawlingSymbol"/>
      </pattern>
      <symbol id="crawlingSymbol">
        <g>
          <path d="M -12.5 12.5 l 13 -13 l 6 0 l -13 13 Z M -0.5 12.5 l 13 -13 l 6 0 l -13 13 Z M 11.5 12.5 l 13 -13 l 6 0 l -13 13 Z"/>
        </g>
      </symbol>
      <pattern id="crawlingPattern-0060fba2" x="0" y="0" width="12" height="12" patternUnits="userSpaceOnUse" fill="#0060fba2">
        <use href="#crawlingSymbol"/>
      </pattern>
      <pattern id="crawlingPattern-00000024" x="0" y="0" width="12" height="12" patternUnits="userSpaceOnUse" fill="#00000024">
        <use href="#crawlingSymbol"/>
      </pattern>
      <pattern id="crawlingPattern-00b15c75" x="0" y="0" width="12" height="12" patternUnits="userSpaceOnUse" fill="#00b15c75">
        <use href="#crawlingSymbol"/>
      </pattern>
      <pattern id="crawlingPattern-5c87005e" x="0" y="0" width="12" height="12" patternUnits="userSpaceOnUse" fill="#5c87005e">
        <use href="#crawlingSymbol"/>
      </pattern>
      <pattern id="crawlingPattern-f9080081" x="0" y="0" width="12" height="12" patternUnits="userSpaceOnUse" fill="#f9080081">
        <use href="#crawlingSymbol"/>
      </pattern>
    </defs>
  </g>
  <g id="g-root-lock_4maoo6i3lyj3-stroke-fill" data-item-order="0" transform="translate(416, 158)">
    <g id="lock_4maoo6i3lyj3-stroke" fill="none" stroke-linecap="round" stroke-linejoin="round" stroke-miterlimit="4" stroke="#fb6762" stroke-width="2">
      <g>
        <path d="M 13 15.514L 47 15.514L 47 15.514L 47 53.514C 47 54.618568 46.104568 55.514 45 55.514L 13 55.514C 11.895431 55.514 11 54.618568 11 53.514L 11 17.514C 11 16.409431 11.895431 15.514 13 15.514ZM 29 15.514L 29 55.514M 11 35.514L 47 35.514M 47 15.514L 54.257999 12.612C 54.874268 12.365793 55.572529 12.441307 56.12191 12.813573C 56.671291 13.185839 57.000244 13.806372 57 14.469999L 57 36.559998C 57.000244 37.223629 56.671291 37.844162 56.12191 38.216427C 55.572529 38.588692 54.874268 38.664207 54.257999 38.417999L 47 35.514M 25 20.514L 25 26.514M 25 30.014C 25.276142 30.014 25.5 30.237858 25.5 30.514M 24.5 30.514C 24.5 30.237858 24.723858 30.014 25 30.014M 25 31.014C 24.867229 31.014534 24.73974 30.962027 24.645855 30.868143C 24.551971 30.774258 24.499466 30.64677 24.5 30.514M 25.5 30.514C 25.500534 30.64677 25.448027 30.774258 25.354143 30.868143C 25.260258 30.962027 25.132771 31.014534 25 31.014M 25 40.514L 25 46.514M 25 50.014C 25.276142 50.014 25.5 50.237858 25.5 50.514M 24.5 50.514C 24.5 50.237858 24.723858 50.014 25 50.014M 25 51.014C 24.867229 51.014534 24.73974 50.962025 24.645855 50.868141C 24.551971 50.774258 24.499466 50.64677 24.5 50.514M 25.5 50.514C 25.500534 50.64677 25.448027 50.774258 25.354143 50.868141C 25.260258 50.962025 25.132771 51.014534 25 51.014M 43 40.514L 43 46.514M 43 50.014C 43.276142 50.014 43.5 50.237858 43.5 50.514M 42.5 50.514C 42.5 50.237858 42.723858 50.014 43 50.014M 43 51.014C 42.867229 51.014534 42.739738 50.962025 42.645855 50.868141C 42.551971 50.774258 42.499466 50.64677 42.5 50.514M 43.5 50.514C 43.500534 50.64677 43.448025 50.774258 43.354141 50.868141C 43.260258 50.962025 43.132771 51.014534 43 51.014M 29 19.514L 47 19.514M 29 23.514L 32 23.514C 32.552284 23.514 33 23.961716 33 24.514L 33 35.514M 33 24.514C 33 23.961716 33.447716 23.514 34 23.514L 36 23.514C 36.552284 23.514 37 23.961716 37 24.514L 37 35.514M 43.444 35.514L 37.542 26.356001C 37.242851 25.892048 37.376236 25.273445 37.84 24.973999L 39.521999 23.889999C 39.985954 23.590849 40.604553 23.724237 40.903999 24.188L 47 33.690002"/>
      </g>
    </g>
  </g>
  <g id="g-root-48px_zoeqg6i3nbwg-stroke-fill" data-item-order="0" transform="translate(140, 158)">
    <g id="48px_zoeqg6i3nbwg-stroke" fill="none" stroke-linecap="round" stroke-linejoin="round" stroke-miterlimit="4" stroke="#b7b7b7" stroke-width="2">
      <g>
        <path d="M 15.07227 30.179C 15.07227 24.4822 17.78873 19.69573 23.0107 19.69573C 28.2328 19.69573 30.9492 24.4822 30.9492 30.179L 30.9492 37.2732C 30.9492 42.97 28.1054 47.8821 23.0107 47.8821C 17.91609 47.8821 15.07227 42.97 15.07227 37.2732L 15.07227 30.179ZM 53.6933 20.1206L 40.3788 20.1206L 38.9878 33.1442C 39.8169 32.315 42.3531 30.6566 45.8651 30.6566C 49.9711 30.6566 53.8125 33.4467 53.427 40.0524C 53.0278 46.8938 48.912 47.9042 45.5285 47.9042C 41.9445 47.9042 38.405 45.3609 38.0728 40.565"/>
      </g>
    </g>
  </g>
  <g id="g-root-2_4kf9eui3or29-stroke-fill" data-item-order="0" transform="translate(440, 254)">
    <g id="2_4kf9eui3or29-stroke" fill="none" stroke-linecap="round" stroke-linejoin="round" stroke-miterlimit="4" stroke="#a6da37" stroke-width="2">
      <g>
        <path d="M 11 34L 57 34M 22 23C 22 26.313709 24.686291 29 28 29C 31.313709 29 34 26.313709 34 23C 34 19.686291 31.313709 17 28 17C 24.686291 17 22 19.686291 22 23M 57 34C 56.999149 36.731045 56.511524 39.440079 55.560001 42L 34 42L 34 57C 21.297451 57 11 46.702549 11 34C 11 21.297451 21.297451 11 34 11C 35.340492 11.001427 36.678505 11.115158 38 11.34L 38 28L 56.200001 28C 56.731449 29.955696 57.000473 31.973381 57 34ZM 33.998001 48L 49.198002 48M 33.998001 54L 43.198002 54M 38 22L 51.375999 22M 27 23C 27 23.552284 27.447716 24 28 24C 28.552284 24 29 23.552284 29 23C 29 22.447716 28.552284 22 28 22C 27.447716 22 27 22.447716 27 23M 46 16L 46 28M 52 18L 52 28M 40 42L 40 56M 46 42L 46 50"/>
      </g>
    </g>
  </g>
  <g id="g-root-48px_1qa2t0mi3q5tu-stroke-fill" data-item-order="0" transform="translate(116, 254)">
    <g id="48px_1qa2t0mi3q5tu-stroke" fill="none" stroke-linecap="round" stroke-linejoin="round" stroke-miterlimit="4" stroke="#b7b7b7" stroke-width="2">
      <g>
        <path d="M 15.07227 30.179C 15.07227 24.4822 17.78873 19.69573 23.0107 19.69573C 28.2328 19.69573 30.9492 24.4822 30.9492 30.179L 30.9492 37.2732C 30.9492 42.97 28.1054 47.8821 23.0107 47.8821C 17.91609 47.8821 15.07227 42.97 15.07227 37.2732L 15.07227 30.179ZM 49.9098 47.9788L 49.9098 19.55127L 36.2949 39.738L 55.3147 39.738"/>
      </g>
    </g>
  </g>
  <g id="g-root-pers_1hefvxii352x7-stroke-fill" data-item-order="0" transform="translate(464, 350)">
    <g id="pers_1hefvxii352x7-stroke" fill="none" stroke-linecap="round" stroke-linejoin="round" stroke-miterlimit="4" stroke="#43dd93" stroke-width="2">
      <g>
        <path d="M 33 16C 33 18.761425 35.238579 21 38 21C 40.761425 21 43 18.761425 43 16C 43 13.238577 40.761425 11 38 11C 35.238579 11 33 13.238577 33 16ZM 54 57C 52.343147 57 51 55.656857 51 54L 51 38.200001C 50.999088 37.489914 50.747665 36.802925 50.290001 36.260002L 44.526001 29.17L 42.023998 31.115999C 38.439194 33.896667 33.346359 33.5797 30.134001 30.375999L 26.879999 27.122C 25.74308 25.944864 25.759338 24.073744 26.916542 22.916542C 28.073744 21.759338 29.944864 21.74308 31.122 22.880001L 34.375999 26.134001C 35.446144 27.204103 37.14576 27.30958 38.34 26.380001L 43.158001 22.633999C 44.445595 21.631636 46.298225 21.842224 47.328003 23.108002L 54.908001 32.43C 56.261658 34.047768 57.002316 36.090599 56.999996 38.199997L 57 54C 57 55.656857 55.656857 57 54 57ZM 17 21C 17 22.104568 16.104568 23 15 23L 13 23C 11.895431 23 11 22.104568 11 21L 11 13C 11 11.895431 11.895431 11 13 11L 15 11C 16.104568 11 17 11.895431 17 13ZM 29 17.306C 28.99955 18.283636 28.292398 19.117668 27.327999 19.278L 17 21L 17 13L 27.166 13.848C 28.205271 13.934551 29.003597 14.805139 29 15.848ZM 21 20.334L 21 57M 12 57L 21 34L 30 57"/>
      </g>
    </g>
  </g>
  <g id="g-root-48px_1hefvxii36gb0-stroke-fill" data-item-order="0" transform="translate(92, 350)">
    <g id="48px_1hefvxii36gb0-stroke" fill="none" stroke-linecap="round" stroke-linejoin="round" stroke-miterlimit="4" stroke="#b7b7b7" stroke-width="2">
      <g>
        <path d="M 15.07227 30.1785C 15.07227 24.4817 17.78873 19.69524 23.0107 19.69524C 28.2328 19.69524 30.9492 24.4817 30.9492 30.1785L 30.9492 37.2727C 30.9492 42.9695 28.1054 47.8816 23.0107 47.8816C 17.91609 47.8816 15.07227 42.9695 15.07227 37.2727L 15.07227 30.1785ZM 37.1212 27.0681C 37.0021 24.6592 38.4826 19.70994 45.0653 19.70994C 51.648 19.70994 52.6563 24.5974 52.4282 27.357C 52.1767 30.3999 50.2718 33.5079 42.2007 33.5079C 49.7136 33.5079 53.1255 35.562 53.1255 41.1245C 53.1255 45.9328 48.8755 47.8898 44.9922 47.8898C 42.2014 47.866 36.6196 46.2871 36.6196 40.1622"/>
      </g>
    </g>
  </g>
  <g id="g-root-dc_4jsvhii37uo5-stroke-fill" data-item-order="0" transform="translate(488, 446)">
    <g id="dc_4jsvhii37uo5-stroke" fill="none" stroke-linecap="round" stroke-linejoin="round" stroke-miterlimit="4" stroke="#b7b7b7" stroke-width="2">
      <g>
        <path d="M 23.546 27.728001L 44.456001 27.728001L 44.456001 42.363998L 23.546 42.363998ZM 11 27.728001L 23.546 27.728001L 23.546 42.363998L 11 42.363998ZM 44.453999 27.728001L 57 27.728001L 57 42.363998L 44.453999 42.363998ZM 23.546 27.728001L 34 19.364L 44.453999 27.728001M 11 27.728001L 11 21.454L 31.386 21.454M 57 27.728001L 57 21.454L 36.613998 21.454M 19.41 21.454L 19.41 18.318001M 47.543999 21.454L 47.543999 18.318001M 34 19.364L 34 11L 41.292 11L 41.292 16.228001L 34 16.228001M 30.459999 27.728001L 30.459999 42.363998M 37.540001 27.728001L 37.540001 42.363998M 26.681999 57L 41.318001 57M 34 57L 34 51.771999C 34 47.59 39.228001 47.59 39.228001 51.771999M 34 57L 34 51.771999C 34 47.59 28.771999 47.59 28.771999 51.771999M 57 35.293999L 37.540001 35.293999M 11 35.293999L 30.459999 35.293999M 37.540001 36.816002C 37.539703 34.861122 35.95488 33.276535 34 33.276535C 32.04512 33.276535 30.460293 34.861122 30.459999 36.816002M 17.271999 32.062L 17.271999 35.045998M 17.271999 39.382L 17.271999 42.363998M 50.728001 32.062L 50.728001 35.045998M 50.728001 39.382L 50.728001 42.363998"/>
      </g>
    </g>
  </g>
  <g id="g-root-48px_1hdteuei39a8e-stroke-fill" data-item-order="0" transform="translate(68, 446)">
    <g id="48px_1hdteuei39a8e-stroke" fill="none" stroke-linecap="round" stroke-linejoin="round" stroke-miterlimit="4" stroke="#b7b7b7" stroke-width="2">
      <g>
        <path d="M 15.07227 30.1785C 15.07227 24.4817 17.78873 19.69524 23.0107 19.69524C 28.2328 19.69524 30.9492 24.4817 30.9492 30.1785L 30.9492 37.2727C 30.9492 42.9695 28.1054 47.8816 23.0107 47.8816C 17.91609 47.8816 15.07227 42.9695 15.07227 37.2727L 15.07227 30.1785ZM 36.8315 27.5154C 36.8315 22.8951 40.0559 19.69531 44.4376 19.69531C 51.7066 19.69531 54.1859 26.7886 49.4213 33.0984L 37.33 47.4175L 53.9507 47.4175"/>
      </g>
    </g>
  </g>
  <g id="g-root-nigh_908up2i3apzb-stroke-fill" data-item-order="0" transform="translate(512, 542)">
    <g id="nigh_908up2i3apzb-stroke" fill="none" stroke-linecap="round" stroke-linejoin="round" stroke-miterlimit="4" stroke="#4f91fc" stroke-width="2">
      <g>
        <path d="M 19.1 45.062801C 21.861439 45.062801 24.1 42.8242 24.1 40.062798C 24.1 37.301399 21.861439 35.062798 19.1 35.062798C 16.338581 35.062798 14.1 37.301399 14.1 40.062798C 14.1 42.8242 16.338581 45.062801 19.1 45.062801ZM 11.500016 56.462601C 11.500016 52.2626 14.900021 48.862598 19.100021 48.862598C 22.89036 48.862598 26.029119 51.631599 26.60536 55.258801M 48.900002 45.062801C 51.6614 45.062801 53.900002 42.8242 53.900002 40.062798C 53.900002 37.301399 51.6614 35.062798 48.900002 35.062798C 46.138599 35.062798 43.900002 37.301399 43.900002 40.062798C 43.900002 42.8242 46.138599 45.062801 48.900002 45.062801ZM 56.5 56.462601C 56.5 52.2626 53.099998 48.862598 48.900002 48.862598C 45.2948 48.862598 42.279202 51.367599 41.4972 54.733601M 34.099998 45.062801C 36.861401 45.062801 39.099998 42.8242 39.099998 40.062798C 39.099998 37.301399 36.861401 35.062798 34.099998 35.062798C 31.3386 35.062798 29.1 37.301399 29.1 40.062798C 29.1 42.8242 31.3386 45.062801 34.099998 45.062801ZM 26.5 56.462601C 26.5 52.2626 29.9 48.862598 34.099998 48.862598C 38.299999 48.862598 41.700001 52.2626 41.700001 56.462601M 10 10M 42.559601 18.4226L 40.951 21.2089M 10 10M 38.777199 18.539059L 40.950798 21.209179M 10 10M 37.637802 22.657681L 40.950798 21.20916M 10 10M 41.353001 24.80262L 40.950798 21.209221M 10 10M 44.349998 21.75638L 40.950798 21.209141M 36.698997 28.78134C 36.441601 28.809259 36.181198 28.82366 35.918602 28.82366C 31.6628 28.82366 28.258181 25.419041 28.258181 21.163261C 28.258181 16.907499 31.6628 13.50288 35.918602 13.50288C 36.514603 13.50288 37.0896 13.56678 37.637802 13.6866C 36.0368 12.36622 33.9352 11.537598 31.5574 11.537598C 26.3351 11.537598 22.157341 15.715361 22.157341 20.937561C 22.157341 26.15976 26.3351 30.337601 31.5574 30.337601C 33.4132 30.337601 35.1716 29.752119 36.698997 28.78134Z"/>
      </g>
    </g>
  </g>
  <g id="g-root-48px_1hf2d0mi3aps8-stroke-fill" data-item-order="0" transform="translate(44, 542)">
    <g id="48px_1hf2d0mi3aps8-stroke" fill="none" stroke-linecap="round" stroke-linejoin="round" stroke-miterlimit="4" stroke="#b7b7b7" stroke-width="2">
      <g>
        <path d="M 37.8418 23.3774L 46.2969 20.1836L 46.2969 47.951M 15.07227 30.1785C 15.07227 24.4817 17.78873 19.69524 23.0107 19.69524C 28.2328 19.69524 30.9492 24.4817 30.9492 30.1785L 30.9492 37.2727C 30.9492 42.9695 28.1054 47.8816 23.0107 47.8816C 17.91609 47.8816 15.07227 42.9695 15.07227 37.2727L 15.07227 30.1785Z"/>
      </g>
    </g>
  </g>
</svg>
