<?xml version='1.0' encoding='UTF-8'?>
<svg xmlns="http://www.w3.org/2000/svg" xmlns:xlink="http://www.w3.org/1999/xlink" width="720" height="780" viewBox="0 0 720 780" style="fill:none;stroke:none;fill-rule:evenodd;clip-rule:evenodd;stroke-linecap:round;stroke-linejoin:round;stroke-miterlimit:1.5;" version="1.1">
  <style class="text-font-style fontImports" data-font-family="Roboto">@import url('https://fonts.googleapis.com/css2?family=Roboto:wght@400;700&amp;display=block');</style>
  <rect x="0" y="0" width="7.2E+2" height="7.8E+2" fill="#2c2c2c" stroke="none" id="programmatic_background"/>
  <g id="g-root-tf_mccswmkvkowf-stroke-fill" data-item-order="-529656" transform="translate(2, 2)"/>
  <g id="g-root--1.Vector_sy_1uux5qukvj8jm-stroke-fill" data-item-order="-27451" transform="translate(349.99609375, 149)">
    <g id="-1.Vector_sy_1uux5qukvj8jm-stroke" fill="none" stroke-linecap="round" stroke-linejoin="round" stroke-miterlimit="4" stroke="#f4f4f4" stroke-width="2">
      <g>
        <path d="M 10 484L 10 394M 10 388L 10 298M 10 292L 10 202M 10 196L 10 106M 10 100L 10 10"/>
      </g>
    </g>
  </g>
  <g id="g-root--1.cu_sy_1lza5hykvj9cb-stroke-fill" data-item-order="-27447" transform="translate(349.99609375, 629)">
    <g id="-1.cu_sy_1lza5hykvj9cb-stroke" fill="none" stroke-linecap="round" stroke-linejoin="round" stroke-miterlimit="4" stroke="#f4f4f4" stroke-width="2">
      <g>
        <path d="M 10.003906 94L 10.003906 10"/>
        <path d="M 3.503906 88L 10.003906 94.5L 16.503906 88" stroke-dasharray="none"/>
      </g>
    </g>
  </g>
  <g id="g-root-6.cu_sy_1hjgndikvja4k-stroke-fill" data-item-order="-27444" transform="translate(347, 623)">
    <g id="6.cu_sy_1hjgndikvja4k-fill" stroke="none" fill="none">
      <g>
        <path d="M 13 10L 13 10C 13 10 16 10 16 13L 16 13C 16 13 16 16 13 16L 13 16C 13 16 10 16 10 13L 10 13C 10 13 10 10 13 10"/>
      </g>
    </g>
    <g id="6.cu_sy_1hjgndikvja4k-stroke" fill="none" stroke-linecap="round" stroke-linejoin="round" stroke-miterlimit="4" stroke="#f366bb" stroke-width="2">
      <g>
        <path d="M 13 10L 13 10C 13 10 16 10 16 13L 16 13C 16 13 16 16 13 16L 13 16C 13 16 10 16 10 13L 10 13C 10 13 10 10 13 10"/>
      </g>
    </g>
    <g id="6.cu_sy_1hjgndikvja4k-stroke" fill="none" stroke-linecap="round" stroke-linejoin="round" stroke-miterlimit="4" stroke="#f366bb" stroke-width="2">
      <g>
        <path d="M 37 13L 16 13"/>
      </g>
    </g>
  </g>
  <g id="g-root-5.cu_sy_18ntn4mkvjax9-stroke-fill" data-item-order="-27440" transform="translate(326, 527)">
    <g id="5.cu_sy_18ntn4mkvjax9-fill" stroke="none" fill="none">
      <g>
        <path d="M 34 10L 34 10C 34 10 37 10 37 13L 37 13C 37 13 37 16 34 16L 34 16C 34 16 31 16 31 13L 31 13C 31 13 31 10 34 10"/>
      </g>
    </g>
    <g id="5.cu_sy_18ntn4mkvjax9-stroke" fill="none" stroke-linecap="round" stroke-linejoin="round" stroke-miterlimit="4" stroke="#8769fd" stroke-width="2">
      <g>
        <path d="M 34 10L 34 10C 34 10 37 10 37 13L 37 13C 37 13 37 16 34 16L 34 16C 34 16 31 16 31 13L 31 13C 31 13 31 10 34 10"/>
      </g>
    </g>
    <g id="5.cu_sy_18ntn4mkvjax9-stroke" fill="none" stroke-linecap="round" stroke-linejoin="round" stroke-miterlimit="4" stroke="#8769fd" stroke-width="2">
      <g>
        <path d="M 31 13L 10 13"/>
      </g>
    </g>
  </g>
  <g id="g-root-4.cu_sy_13yn0pikvkn46-stroke-fill" data-item-order="-27436" transform="translate(347, 431)">
    <g id="4.cu_sy_13yn0pikvkn46-fill" stroke="none" fill="none">
      <g>
        <path d="M 13 10L 13 10C 13 10 16 10 16 13L 16 13C 16 13 16 16 13 16L 13 16C 13 16 10 16 10 13L 10 13C 10 13 10 10 13 10"/>
      </g>
    </g>
    <g id="4.cu_sy_13yn0pikvkn46-stroke" fill="none" stroke-linecap="round" stroke-linejoin="round" stroke-miterlimit="4" stroke="#1ac3fb" stroke-width="2">
      <g>
        <path d="M 13 10L 13 10C 13 10 16 10 16 13L 16 13C 16 13 16 16 13 16L 13 16C 13 16 10 16 10 13L 10 13C 10 13 10 10 13 10"/>
      </g>
    </g>
    <g id="4.cu_sy_13yn0pikvkn46-stroke" fill="none" stroke-linecap="round" stroke-linejoin="round" stroke-miterlimit="4" stroke="#1ac3fb" stroke-width="2">
      <g>
        <path d="M 37 13L 16 13"/>
      </g>
    </g>
  </g>
  <g id="g-root-3.cu_sy_v300gmkvknwv-stroke-fill" data-item-order="-27432" transform="translate(326, 335)">
    <g id="3.cu_sy_v300gmkvknwv-fill" stroke="none" fill="none">
      <g>
        <path d="M 34 10L 34 10C 34 10 37 10 37 13L 37 13C 37 13 37 16 34 16L 34 16C 34 16 31 16 31 13L 31 13C 31 13 31 10 34 10"/>
      </g>
    </g>
    <g id="3.cu_sy_v300gmkvknwv-stroke" fill="none" stroke-linecap="round" stroke-linejoin="round" stroke-miterlimit="4" stroke="#a6da37" stroke-width="2">
      <g>
        <path d="M 34 10L 34 10C 34 10 37 10 37 13L 37 13C 37 13 37 16 34 16L 34 16C 34 16 31 16 31 13L 31 13C 31 13 31 10 34 10"/>
      </g>
    </g>
    <g id="3.cu_sy_v300gmkvknwv-stroke" fill="none" stroke-linecap="round" stroke-linejoin="round" stroke-miterlimit="4" stroke="#a6da37" stroke-width="2">
      <g>
        <path d="M 31 13L 10 13"/>
      </g>
    </g>
  </g>
  <g id="g-root-2.cu_sy_qn6ic6kvkop4-stroke-fill" data-item-order="-27428" transform="translate(347, 239)">
    <g id="2.cu_sy_qn6ic6kvkop4-fill" stroke="none" fill="none">
      <g>
        <path d="M 13 10L 13 10C 13 10 16 10 16 13L 16 13C 16 13 16 16 13 16L 13 16C 13 16 10 16 10 13L 10 13C 10 13 10 10 13 10"/>
      </g>
    </g>
    <g id="2.cu_sy_qn6ic6kvkop4-stroke" fill="none" stroke-linecap="round" stroke-linejoin="round" stroke-miterlimit="4" stroke="#43dd93" stroke-width="2">
      <g>
        <path d="M 13 10L 13 10C 13 10 16 10 16 13L 16 13C 16 13 16 16 13 16L 13 16C 13 16 10 16 10 13L 10 13C 10 13 10 10 13 10"/>
      </g>
    </g>
    <g id="2.cu_sy_qn6ic6kvkop4-stroke" fill="none" stroke-linecap="round" stroke-linejoin="round" stroke-miterlimit="4" stroke="#43dd93" stroke-width="2">
      <g>
        <path d="M 37 13L 16 13"/>
      </g>
    </g>
  </g>
  <g id="g-root-1.cu_sy_m7d07qkvkphd-stroke-fill" data-item-order="-27424" transform="translate(326, 143)">
    <g id="1.cu_sy_m7d07qkvkphd-fill" stroke="none" fill="none">
      <g>
        <path d="M 34 10L 34 10C 34 10 37 10 37 13L 37 13C 37 13 37 16 34 16L 34 16C 34 16 31 16 31 13L 31 13C 31 13 31 10 34 10"/>
      </g>
    </g>
    <g id="1.cu_sy_m7d07qkvkphd-stroke" fill="none" stroke-linecap="round" stroke-linejoin="round" stroke-miterlimit="4" stroke="#4f91fc" stroke-width="2">
      <g>
        <path d="M 34 10L 34 10C 34 10 37 10 37 13L 37 13C 37 13 37 16 34 16L 34 16C 34 16 31 16 31 13L 31 13C 31 13 31 10 34 10"/>
      </g>
    </g>
    <g id="1.cu_sy_m7d07qkvkphd-stroke" fill="none" stroke-linecap="round" stroke-linejoin="round" stroke-miterlimit="4" stroke="#4f91fc" stroke-width="2">
      <g>
        <path d="M 31 13L 10 13"/>
      </g>
    </g>
  </g>
  <g id="g-root-tx_armenias_dcch1ykvkn4a-stroke-fill" data-item-order="0" transform="translate(146, 50)">
    <g id="tx_armenias_dcch1ykvkn4a-fill" stroke="none" fill="#f4f4f4">
      <g>
        <text style="font: 20px Roboto, sans-serif; white-space: pre;" font-size="20px" font-family="Roboto, sans-serif">
          <tspan x="15.71" y="34" dominant-baseline="ideographic">Armenia's Journey Through UFO Phenomena</tspan>
        </text>
      </g>
    </g>
  </g>
  <g id="g-root-tx_triangle_vyomkvkop7-stroke-fill" data-item-order="0" transform="translate(398, 650)">
    <g id="tx_triangle_vyomkvkop7-fill" stroke="none" fill="#f4f4f4">
      <g>
        <text style="font: 20px Roboto, sans-serif; white-space: pre;" font-size="20px" font-family="Roboto, sans-serif">
          <tspan x="12" y="34" dominant-baseline="ideographic">Triangle-Shaped UFO Sighting</tspan>
        </text>
      </g>
    </g>
  </g>
  <g id="g-root-tx_spiralph_1lr5zdikvkmx8-stroke-fill" data-item-order="0" transform="translate(26, 554)">
    <g id="tx_spiralph_1lr5zdikvkmx8-fill" stroke="none" fill="#f4f4f4">
      <g>
        <text style="font: 20px Roboto, sans-serif; white-space: pre;" font-size="20px" font-family="Roboto, sans-serif">
          <tspan x="21.33" y="34" dominant-baseline="ideographic">Spiral Phenomenon Observed</tspan>
        </text>
      </g>
    </g>
  </g>
  <g id="g-root-tx_ufosight_18fph06kvkoi5-stroke-fill" data-item-order="0" transform="translate(398, 458)">
    <g id="tx_ufosight_18fph06kvkoi5-fill" stroke="none" fill="#f4f4f4">
      <g>
        <text style="font: 20px Roboto, sans-serif; white-space: pre;" font-size="20px" font-family="Roboto, sans-serif">
          <tspan x="12" y="34" dominant-baseline="ideographic">UFO Sighting Over Yerevan</tspan>
        </text>
      </g>
    </g>
  </g>
  <g id="g-root-tx_ceticonf_v4vfpykvkmxa-stroke-fill" data-item-order="0" transform="translate(38, 362)">
    <g id="tx_ceticonf_v4vfpykvkmxa-fill" stroke="none" fill="#f4f4f4">
      <g>
        <text style="font: 20px Roboto, sans-serif; white-space: pre;" font-size="20px" font-family="Roboto, sans-serif">
          <tspan x="13.34" y="34" dominant-baseline="ideographic">CETI Conference at Byurakan</tspan>
        </text>
      </g>
    </g>
  </g>
  <g id="g-root-tx_allsovie_qp1xlikvknpj-stroke-fill" data-item-order="0" transform="translate(398, 266)">
    <g id="tx_allsovie_qp1xlikvknpj-fill" stroke="none" fill="#f4f4f4">
      <g>
        <text style="font: 20px Roboto, sans-serif; white-space: pre;" font-size="20px" font-family="Roboto, sans-serif">
          <tspan x="12" y="34" dominant-baseline="ideographic">All-Soviet Conference on </tspan>
          <tspan x="12" y="58" dominant-baseline="ideographic">Extraterrestrial Civilizations</tspan>
        </text>
      </g>
    </g>
  </g>
  <g id="g-root-tx_founding_ddlf86kvkpag-stroke-fill" data-item-order="0" transform="translate(62, 170)">
    <g id="tx_founding_ddlf86kvkpag-fill" stroke="none" fill="#f4f4f4">
      <g>
        <text style="font: 20px Roboto, sans-serif; white-space: pre;" font-size="20px" font-family="Roboto, sans-serif">
          <tspan x="54.69" y="34" dominant-baseline="ideographic">Founding of Byurakan </tspan>
          <tspan x="14.56" y="58" dominant-baseline="ideographic">Astrophysical Observatory</tspan>
        </text>
      </g>
    </g>
  </g>
  <g id="g-root-tx_april202_2rdxykvknpl-stroke-fill" data-item-order="0" transform="translate(398, 614)">
    <g id="tx_april202_2rdxykvknpl-fill" stroke="none" fill="#f366bb">
      <g>
        <text style="font: bold 20px Roboto, sans-serif; white-space: pre;" font-weight="bold" font-size="20px" font-family="Roboto, sans-serif">
          <tspan x="12" y="34" dominant-baseline="ideographic">April 2020</tspan>
        </text>
      </g>
    </g>
  </g>
  <g id="g-root-tx_2012_1uo1xsmkvkoaq-stroke-fill" data-item-order="0" transform="translate(242, 518)">
    <g id="tx_2012_1uo1xsmkvkoaq-fill" stroke="none" fill="#8769fd">
      <g>
        <text style="font: bold 20px Roboto, sans-serif; white-space: pre;" font-weight="bold" font-size="20px" font-family="Roboto, sans-serif">
          <tspan x="22.09" y="34" dominant-baseline="ideographic">2012</tspan>
        </text>
      </g>
    </g>
  </g>
  <g id="g-root-tx_july1120_1hclffakvkpvn-stroke-fill" data-item-order="0" transform="translate(398, 422)">
    <g id="tx_july1120_1hclffakvkpvn-fill" stroke="none" fill="#1ac3fb">
      <g>
        <text style="font: bold 20px Roboto, sans-serif; white-space: pre;" font-weight="bold" font-size="20px" font-family="Roboto, sans-serif">
          <tspan x="12" y="34" dominant-baseline="ideographic">July 11, 2010</tspan>
        </text>
      </g>
    </g>
  </g>
  <g id="g-root-tx_1971_v64dw6kvkp3g-stroke-fill" data-item-order="0" transform="translate(242, 326)">
    <g id="tx_1971_v64dw6kvkp3g-fill" stroke="none" fill="#a6da37">
      <g>
        <text style="font: bold 20px Roboto, sans-serif; white-space: pre;" font-weight="bold" font-size="20px" font-family="Roboto, sans-serif">
          <tspan x="22.09" y="34" dominant-baseline="ideographic">1971</tspan>
        </text>
      </g>
    </g>
  </g>
  <g id="g-root-tx_1964_hvaclykvknil-stroke-fill" data-item-order="0" transform="translate(398, 230)">
    <g id="tx_1964_hvaclykvknil-fill" stroke="none" fill="#43dd93">
      <g>
        <text style="font: bold 20px Roboto, sans-serif; white-space: pre;" font-weight="bold" font-size="20px" font-family="Roboto, sans-serif">
          <tspan x="12" y="34" dominant-baseline="ideographic">1964</tspan>
        </text>
      </g>
    </g>
  </g>
  <g id="g-root-tx_1946_1luact2kvko3q-stroke-fill" data-item-order="0" transform="translate(242, 134)">
    <g id="tx_1946_1luact2kvko3q-fill" stroke="none" fill="#4f91fc">
      <g>
        <text style="font: bold 20px Roboto, sans-serif; white-space: pre;" font-weight="bold" font-size="20px" font-family="Roboto, sans-serif">
          <tspan x="22.09" y="34" dominant-baseline="ideographic">1946</tspan>
        </text>
      </g>
    </g>
    <defs>
      <pattern id="crawlingPattern-0000001b" x="0" y="0" width="12" height="12" patternUnits="userSpaceOnUse" fill="#0000001b">
        <use href="#crawlingSymbol"/>
      </pattern>
      <symbol id="crawlingSymbol">
        <g>
          <path d="M -12.5 12.5 l 13 -13 l 6 0 l -13 13 Z M -0.5 12.5 l 13 -13 l 6 0 l -13 13 Z M 11.5 12.5 l 13 -13 l 6 0 l -13 13 Z"/>
        </g>
      </symbol>
      <pattern id="crawlingPattern-eb008e76" x="0" y="0" width="12" height="12" patternUnits="userSpaceOnUse" fill="#eb008e76">
        <use href="#crawlingSymbol"/>
      </pattern>
      <pattern id="crawlingPattern-3300fc7a" x="0" y="0" width="12" height="12" patternUnits="userSpaceOnUse" fill="#3300fc7a">
        <use href="#crawlingSymbol"/>
      </pattern>
      <pattern id="crawlingPattern-00a3d9d9" x="0" y="0" width="12" height="12" patternUnits="userSpaceOnUse" fill="#00a3d9d9">
        <use href="#crawlingSymbol"/>
      </pattern>
      <pattern id="crawlingPattern-5c87005e" x="0" y="0" width="12" height="12" patternUnits="userSpaceOnUse" fill="#5c87005e">
        <use href="#crawlingSymbol"/>
      </pattern>
      <pattern id="crawlingPattern-00b15c75" x="0" y="0" width="12" height="12" patternUnits="userSpaceOnUse" fill="#00b15c75">
        <use href="#crawlingSymbol"/>
      </pattern>
      <pattern id="crawlingPattern-0060fba2" x="0" y="0" width="12" height="12" patternUnits="userSpaceOnUse" fill="#0060fba2">
        <use href="#crawlingSymbol"/>
      </pattern>
    </defs>
  </g>
</svg>
